<?xml version="1.0" encoding="utf-8"?>
<!-- Generator: Adobe Illustrator 19.0.0, SVG Export Plug-In . SVG Version: 6.00 Build 0)  -->
<svg version="1.0" id="Artboard_4" xmlns="http://www.w3.org/2000/svg" xmlns:xlink="http://www.w3.org/1999/xlink" x="0px" y="0px"
	 viewBox="0 0 557.5 173.5" style="enable-background:new 0 0 557.5 173.5;" xml:space="preserve">
<style type="text/css">
	.st0{fill:#F1F2F2;}
	.st1{fill:none;stroke:#5B63AD;stroke-width:15;stroke-linejoin:round;stroke-miterlimit:10;}
	.st2{fill:none;stroke:#F79752;stroke-width:15;stroke-linejoin:round;stroke-miterlimit:10;}
</style>
<g id="XMLID_46_">
	<path id="XMLID_2_" class="st0" d="M56.2,89.5H28.7v54.7H4V2h50c16.4,0,29.1,3.7,38,11c8.9,7.4,13.4,18,13.4,32
		c0,9.5-2.3,17.5-6.9,23.9c-4.6,6.4-11,11.4-19.2,14.8l31.9,59.2v1.3H84.8L56.2,89.5z M28.7,69.6h25.4c8.3,0,14.8-2.1,19.5-6.3
		s7-9.9,7-17.2c0-7.6-2.2-13.5-6.5-17.7c-4.3-4.2-10.8-6.3-19.4-6.4H28.7V69.6z"/>
	<path id="XMLID_6_" class="st0" d="M208.4,111.1h-55.1l-11.5,33.1h-25.7L169.8,2H192l53.8,142.2H220L208.4,111.1z M160.3,91.2h41.2
		l-20.6-59L160.3,91.2z"/>
	<path id="XMLID_9_" class="st0" d="M288,144.2h-24.6V2H288V144.2z"/>
	<path id="XMLID_11_" class="st0" d="M392.7,107.6c0-6.3-2.2-11.1-6.6-14.5c-4.4-3.4-12.3-6.8-23.8-10.3
		c-11.5-3.5-20.6-7.3-27.3-11.5c-13-8.1-19.4-18.8-19.4-31.8c0-11.5,4.7-20.9,14-28.3C338.9,3.8,351,0,365.9,0
		c9.9,0,18.7,1.8,26.5,5.5c7.7,3.6,13.8,8.8,18.3,15.6c4.4,6.7,6.6,14.2,6.6,22.4h-24.6c0-7.4-2.3-13.2-7-17.4
		c-4.7-4.2-11.3-6.3-20-6.3c-8.1,0-14.3,1.7-18.8,5.2c-4.5,3.5-6.7,8.3-6.7,14.5c0,5.2,2.4,9.6,7.2,13c4.8,3.5,12.8,6.9,23.8,10.2
		c11.1,3.3,20,7,26.7,11.2c6.7,4.2,11.6,9,14.7,14.5c3.1,5.4,4.7,11.8,4.7,19.1c0,11.8-4.5,21.3-13.6,28.3c-9.1,7-21.4,10.5-37,10.5
		c-10.3,0-19.7-1.9-28.4-5.7c-8.6-3.8-15.3-9.1-20.1-15.8c-4.8-6.7-7.2-14.5-7.2-23.4h24.7c0,8.1,2.7,14.3,8,18.8
		c5.3,4.4,13,6.6,22.9,6.6c8.6,0,15.1-1.7,19.4-5.2C390.5,117.9,392.7,113.3,392.7,107.6z"/>
</g>
<g id="Lines">
	<path id="XMLID_138_" class="st1" d="M0,151h379.9h3c43.7,0,43.7-89.9,87.3-89.9s43.7,89.9,87.3,89.9"/>
	<path id="XMLID_4_" class="st2" d="M0,165.9h315.9c26.6,0,26.7-27,53.3-27c26.6,0,26.5,27,53.2,27c26.6,0,26.6-62,53.2-62
		c26.6,0,26.6,62,53.2,62h28.6"/>
</g>
<g id="XMLID_1_">
</g>
<g id="XMLID_13_">
</g>
<g id="XMLID_14_">
</g>
<g id="XMLID_15_">
</g>
<g id="XMLID_16_">
</g>
<g id="XMLID_17_">
</g>
</svg>
