<?xml version="1.0" encoding="utf-8"?>
<!-- Generator: Adobe Illustrator 19.0.0, SVG Export Plug-In . SVG Version: 6.00 Build 0)  -->
<svg version="1.1" id="Layer_1" xmlns="http://www.w3.org/2000/svg" xmlns:xlink="http://www.w3.org/1999/xlink" x="0px" y="0px"
	 viewBox="-178.5 45 685 516" style="enable-background:new -178.5 45 685 516;" xml:space="preserve">
<style type="text/css">
	.st0{display:none;fill:url(#SVGID_1_);}
	.st1{opacity:0.3;}
	.st2{fill:none;stroke:#000000;stroke-width:0.25;stroke-miterlimit:10;}
	.st3{opacity:0.1;enable-background:new    ;}
	.st4{opacity:0.5;enable-background:new    ;}
	.st5{opacity:0.2;enable-background:new    ;}
	.st6{opacity:0.4;enable-background:new    ;}
	.st7{opacity:0.3;enable-background:new    ;}
	.st8{opacity:0.6;enable-background:new    ;}
	.st9{opacity:5.000000e-002;enable-background:new    ;}
	.st10{opacity:0.7;enable-background:new    ;}
	.st11{display:none;}
	.st12{display:inline;}
	.st13{clip-path:url(#SVGID_3_);fill:url(#SVGID_4_);}
	.st14{clip-path:url(#SVGID_6_);fill:url(#SVGID_7_);}
</style>
<g id="Í_xBC__xB2_ã_x5F_8">
	
		<radialGradient id="SVGID_1_" cx="38.667" cy="429.0247" r="647.8961" gradientTransform="matrix(0.75 0 0 -0.7018 -88.986 394.51)" gradientUnits="userSpaceOnUse">
		<stop  offset="0" style="stop-color:#FFFFFF"/>
		<stop  offset="0.569" style="stop-color:#EEF0F0"/>
		<stop  offset="1" style="stop-color:#E6E6E6"/>
	</radialGradient>
	<rect x="-179" y="-0.4" class="st0" width="600" height="561.4"/>
</g>
<g id="Í_xBC__xB2_ã_x5F_10_x5F_x5F_x5F__xB8__xB4_ÖÆ">
	<circle cx="-78.2" cy="120.9" r="0.8"/>
	<g>
		<circle cx="-85.9" cy="132" r="0.6"/>
	</g>
	<circle cx="-79.5" cy="148.4" r="1.4"/>
	<circle cx="-92.1" cy="159.3" r="1.3"/>
	<circle cx="-86.6" cy="162.6" r="1.4"/>
	<circle cx="-88.6" cy="159.5" r="0.8"/>
	<circle cx="-93.9" cy="157.1" r="1.2"/>
	<circle cx="-91.2" cy="151.8" r="1.2"/>
	<circle cx="-93.6" cy="146.3" r="0.9"/>
	<circle cx="-91.5" cy="121.7" r="0.9"/>
	<circle cx="-93.7" cy="165.7" r="0.8"/>
	<circle cx="-84.2" cy="175.4" r="0.9"/>
	<circle cx="-70.2" cy="186" r="0.6"/>
	<g>
		<circle cx="-79.2" cy="156.4" r="1.2"/>
	</g>
	<g>
		<circle cx="-75.9" cy="168.6" r="1.2"/>
	</g>
	<g>
		<circle cx="-71.9" cy="181.4" r="0.9"/>
	</g>
	<circle cx="-86.2" cy="148.4" r="0.6"/>
	<circle cx="-84.5" cy="153.6" r="1.1"/>
	<circle cx="-96.5" cy="131.3" r="1.1"/>
	<circle cx="-84.5" cy="127.3" r="1.1"/>
	<circle cx="-42.7" cy="136.7" r="1.2"/>
	<circle cx="-37.1" cy="133.9" r="0.6"/>
	<circle cx="-47.6" cy="119.7" r="0.8"/>
	<circle cx="-38.4" cy="126.7" r="1.2"/>
	<circle cx="-39.3" cy="140.4" r="1.3"/>
	<circle cx="-63.1" cy="112.3" r="1.4"/>
	<circle cx="-72.7" cy="106.5" r="0.6"/>
	<circle cx="-52.4" cy="130.3" r="1"/>
	<circle cx="-71.5" cy="121.8" r="1.3"/>
	<g>
		<circle cx="-62.3" cy="121.2" r="0.8"/>
	</g>
	<g>
		<circle cx="-59.8" cy="120.3" r="1"/>
	</g>
	<circle cx="-58.6" cy="164.2" r="1.1"/>
	<circle cx="-66.5" cy="189.3" r="1.2"/>
	<circle cx="-70.2" cy="186.8" r="0.8"/>
	<circle cx="-69.3" cy="188.9" r="1.4"/>
	<g>
		<circle cx="-73.1" cy="185.4" r="0.8"/>
	</g>
	<g>
		<circle cx="-91.5" cy="169.7" r="1.4"/>
	</g>
	<circle cx="-75.9" cy="174.9" r="0.6"/>
	<g>
		<circle cx="-3" cy="130.3" r="1.2"/>
	</g>
	<circle cx="-8.9" cy="122" r="1.3"/>
	<circle cx="-15.5" cy="128.6" r="0.7"/>
	<g>
		<circle cx="42.4" cy="86.3" r="0.8"/>
	</g>
	<g>
		<circle cx="4.3" cy="135.3" r="1.3"/>
	</g>
	<g>
		<circle cx="47.6" cy="73.4" r="1"/>
	</g>
	<g>
		<circle cx="34.7" cy="78" r="0.9"/>
	</g>
	<circle cx="17.8" cy="95.7" r="0.6"/>
	<circle cx="7.9" cy="111.6" r="1.4"/>
	<circle cx="-2.2" cy="120.8" r="0.9"/>
	<g>
		<circle cx="33.7" cy="118.9" r="1.1"/>
	</g>
	<g>
		<circle cx="55.7" cy="87.1" r="1.2"/>
	</g>
	<g>
		<circle cx="25.3" cy="133.9" r="1.1"/>
	</g>
	<circle cx="25.6" cy="126.9" r="0.9"/>
	<g>
		<circle cx="130.2" cy="66.1" r="1.4"/>
	</g>
	<g>
		<circle cx="45.2" cy="69.7" r="0.6"/>
	</g>
	<g>
		<circle cx="98.7" cy="60.9" r="0.7"/>
	</g>
	<circle cx="54" cy="59.1" r="1.3"/>
	<g>
		<circle cx="52" cy="82.6" r="0.8"/>
	</g>
	<g>
		<circle cx="70.3" cy="56.3" r="1.4"/>
	</g>
	<g>
		<circle cx="170.8" cy="75.9" r="1.2"/>
	</g>
	<g>
		<circle cx="160.8" cy="82.4" r="1.1"/>
	</g>
	<g>
		<circle cx="111.2" cy="69" r="1.4"/>
	</g>
	<g>
		<circle cx="120" cy="61.2" r="0.6"/>
	</g>
	<circle cx="190.7" cy="67" r="0.7"/>
	<circle cx="168.4" cy="86.2" r="1"/>
	<circle cx="178.2" cy="97.3" r="0.9"/>
	<circle cx="210.3" cy="91.5" r="0.7"/>
	<circle cx="212.9" cy="89.2" r="0.7"/>
	<circle cx="217.3" cy="79.5" r="1.1"/>
	<circle cx="213.1" cy="74.4" r="0.8"/>
	<circle cx="215.8" cy="78.6" r="0.8"/>
	<circle cx="195.5" cy="94.5" r="1.2"/>
	<circle cx="187.4" cy="61.5" r="1.4"/>
	<g>
		<circle cx="160.1" cy="77.8" r="1.3"/>
	</g>
	<circle cx="121.7" cy="56.5" r="1.3"/>
	<circle cx="39.8" cy="71.9" r="0.9"/>
	<circle cx="-12.4" cy="119.2" r="0.7"/>
	<circle cx="-29.9" cy="143.5" r="0.8"/>
	<circle cx="-104.4" cy="142.5" r="1.3"/>
	<circle cx="-96.3" cy="164" r="0.9"/>
	<circle cx="-97.9" cy="172.3" r="0.8"/>
	<circle cx="-93.6" cy="172.8" r="0.8"/>
	<circle cx="-102.8" cy="173.2" r="0.9"/>
	<circle cx="-112.3" cy="138.9" r="0.6"/>
	<circle cx="-98.1" cy="137.9" r="0.6"/>
	<circle cx="-110" cy="136.9" r="1.3"/>
	<circle cx="-121" cy="145.4" r="1.2"/>
	<circle cx="-122.1" cy="141.6" r="0.6"/>
	<circle cx="-127.6" cy="151.9" r="1.2"/>
	<circle cx="-131.9" cy="159.7" r="1.3"/>
	<circle cx="-121" cy="163.6" r="1.3"/>
	<g>
		<circle cx="-113.5" cy="188.8" r="1"/>
	</g>
	<circle cx="-109.3" cy="184.8" r="1.3"/>
	<circle cx="-105.7" cy="181.8" r="1"/>
	<circle cx="-108.7" cy="187.7" r="1.1"/>
	<circle cx="-108" cy="192.7" r="1.1"/>
	<circle cx="-111.1" cy="202.9" r="0.7"/>
	<circle cx="-116.5" cy="204.7" r="0.8"/>
	<g>
		<circle cx="-100.9" cy="270.8" r="1.1"/>
	</g>
	<g>
		<circle cx="-118.2" cy="201.1" r="1.2"/>
	</g>
	<circle cx="-83.8" cy="278.8" r="1.4"/>
	<circle cx="-92.2" cy="282.3" r="0.6"/>
	<circle cx="-64.2" cy="233.4" r="1.1"/>
	<circle cx="-78.7" cy="239.1" r="1.1"/>
	<g>
		<circle cx="-77.7" cy="254.3" r="1.3"/>
	</g>
	<g>
		<circle cx="-61.6" cy="244.1" r="0.8"/>
	</g>
	<circle cx="-51.7" cy="242.9" r="1.4"/>
	<circle cx="-39.2" cy="234.9" r="0.9"/>
	<circle cx="-37.1" cy="213.1" r="1.3"/>
	<circle cx="-47" cy="227.6" r="1.4"/>
	<circle cx="-56.3" cy="227.8" r="0.9"/>
	<g>
		<circle cx="25.3" cy="247.6" r="0.9"/>
	</g>
	<g>
		<circle cx="-1.6" cy="243.4" r="0.7"/>
	</g>
	<g>
		<circle cx="-32.9" cy="185.6" r="1.3"/>
	</g>
	<circle cx="-28.7" cy="212.7" r="0.9"/>
	<g>
		<circle cx="-28.7" cy="225.3" r="1.3"/>
	</g>
	<g>
		<circle cx="-35" cy="147.1" r="1.3"/>
	</g>
	<g>
		<circle cx="20.5" cy="193.5" r="1.1"/>
	</g>
	<g>
		<circle cx="-32.7" cy="168.6" r="0.8"/>
	</g>
	<g>
		<circle cx="-34.9" cy="222.8" r="0.8"/>
	</g>
	<g>
		<circle cx="-34.6" cy="171.5" r="1.1"/>
	</g>
	<g>
		<circle cx="-37.8" cy="195.2" r="1.2"/>
	</g>
	<circle cx="-12.6" cy="222.9" r="1.1"/>
	<g>
		<circle cx="99.4" cy="300.5" r="1.1"/>
	</g>
	<g>
		<circle cx="101" cy="280.1" r="0.6"/>
	</g>
	<g>
		<circle cx="108.9" cy="316.7" r="0.6"/>
	</g>
	<g>
		<circle cx="72.7" cy="255.9" r="0.8"/>
	</g>
	<g>
		<circle cx="89.8" cy="277.3" r="1.1"/>
	</g>
	<g>
		<circle cx="56.2" cy="294.1" r="1"/>
	</g>
	<g>
		<circle cx="10.1" cy="375.7" r="0.8"/>
	</g>
	<g>
		<circle cx="41.2" cy="305.6" r="1.1"/>
	</g>
	<g>
		<circle cx="0.4" cy="380.5" r="0.9"/>
	</g>
	<g>
		<circle cx="30.5" cy="313.7" r="0.6"/>
	</g>
	<circle cx="4.2" cy="357.5" r="1"/>
	<circle cx="14.8" cy="335" r="1.4"/>
	<g>
		<circle cx="70.9" cy="403.5" r="1.2"/>
	</g>
	<g>
		<circle cx="144.5" cy="408.2" r="1.2"/>
	</g>
	<g>
		<circle cx="43.1" cy="369.2" r="0.9"/>
	</g>
	<g>
		<circle cx="90.9" cy="393.3" r="1.4"/>
	</g>
	<g>
		<circle cx="36.9" cy="391.4" r="0.6"/>
	</g>
	<g>
		<circle cx="103.9" cy="389.9" r="1.1"/>
	</g>
	<g>
		<circle cx="59.6" cy="370" r="0.7"/>
	</g>
	<g>
		<circle cx="71.1" cy="387.3" r="0.8"/>
	</g>
	<g>
		<circle cx="71" cy="372.3" r="0.7"/>
	</g>
	<g>
		<circle cx="142.7" cy="395.8" r="1.1"/>
	</g>
	<g>
		<circle cx="109.8" cy="321.1" r="0.7"/>
	</g>
	<g>
		<circle cx="40" cy="367.9" r="0.9"/>
	</g>
	<g>
		<circle cx="100.5" cy="326.4" r="1.2"/>
	</g>
	<g>
		<circle cx="62" cy="347.7" r="1.4"/>
	</g>
	<g>
		<circle cx="42.9" cy="387.3" r="1.2"/>
	</g>
	<circle cx="23.4" cy="359.9" r="1.3"/>
	<g>
		<circle cx="95.2" cy="378.5" r="1.1"/>
	</g>
	<g>
		<circle cx="164.2" cy="395" r="1.4"/>
	</g>
	<g>
		<circle cx="162.7" cy="436.2" r="1.2"/>
	</g>
	<g>
		<circle cx="182.3" cy="421.9" r="1.2"/>
	</g>
	<g>
		<circle cx="167.4" cy="448.4" r="1.4"/>
	</g>
	<g>
		<circle cx="170" cy="406" r="1.2"/>
	</g>
	<g>
		<circle cx="171.8" cy="389.7" r="1.4"/>
	</g>
	<circle cx="181.8" cy="382.6" r="1.2"/>
	<g>
		<circle cx="157.8" cy="420.4" r="1.2"/>
	</g>
	<circle cx="158.1" cy="410.1" r="0.7"/>
	<circle cx="151.4" cy="421.9" r="1"/>
	<g>
		<circle cx="176.8" cy="398.3" r="0.7"/>
	</g>
	<g>
		<circle cx="161.9" cy="396.8" r="0.8"/>
	</g>
	<g>
		<circle cx="83.3" cy="393.1" r="0.8"/>
	</g>
	<g>
		<circle cx="157.4" cy="402.7" r="1.3"/>
	</g>
	<circle cx="70.5" cy="381.2" r="1.3"/>
	<g>
		<circle cx="160.3" cy="336.2" r="1.1"/>
	</g>
	<g>
		<circle cx="149.5" cy="300.7" r="1.1"/>
	</g>
	<g>
		<circle cx="144.4" cy="348.5" r="0.7"/>
	</g>
	<g>
		<circle cx="165.1" cy="352.9" r="1.2"/>
	</g>
	<g>
		<circle cx="164.2" cy="282.5" r="1.3"/>
	</g>
	<g>
		<circle cx="166" cy="321.7" r="1.1"/>
	</g>
	<g>
		<circle cx="225.3" cy="396.8" r="0.9"/>
	</g>
	<g>
		<circle cx="187" cy="370.9" r="1.4"/>
	</g>
	<g>
		<circle cx="287.2" cy="413.5" r="1.3"/>
	</g>
	<g>
		<circle cx="262" cy="426.2" r="0.9"/>
	</g>
	<g>
		<circle cx="264.9" cy="439.5" r="1.1"/>
	</g>
	<g>
		<circle cx="298.2" cy="470.5" r="0.6"/>
	</g>
	<g>
		<circle cx="179" cy="406" r="1.4"/>
	</g>
	<g>
		<circle cx="306.9" cy="476.6" r="1.3"/>
	</g>
	<g>
		<circle cx="358.6" cy="520.8" r="0.8"/>
	</g>
	<g>
		<circle cx="353.8" cy="485.4" r="1.1"/>
	</g>
	<g>
		<circle cx="309.2" cy="462.6" r="1"/>
	</g>
	<g>
		<circle cx="370.4" cy="551.3" r="1.3"/>
	</g>
	<g>
		<circle cx="357.6" cy="555.8" r="0.8"/>
	</g>
	<g>
		<circle cx="341.6" cy="484.5" r="0.7"/>
	</g>
	<g>
		<circle cx="247.5" cy="390.9" r="0.7"/>
	</g>
	<g>
		<circle cx="300.2" cy="443.8" r="0.9"/>
	</g>
	<g>
		<circle cx="290.7" cy="454.2" r="1.3"/>
	</g>
	<g>
		<circle cx="286.9" cy="383.5" r="1"/>
	</g>
	<g>
		<circle cx="254.1" cy="341" r="1"/>
	</g>
	<g>
		<circle cx="203.5" cy="244.3" r="0.6"/>
	</g>
	<g>
		<circle cx="181.7" cy="307" r="1"/>
	</g>
	<g>
		<circle cx="147.9" cy="242.6" r="1.1"/>
	</g>
	<g>
		<circle cx="202" cy="355.2" r="0.7"/>
	</g>
	<g>
		<circle cx="140.3" cy="232" r="1.1"/>
	</g>
	<g>
		<circle cx="137.2" cy="337.7" r="1.2"/>
	</g>
	<g>
		<circle cx="153.4" cy="337.1" r="0.9"/>
	</g>
	<g>
		<circle cx="149.8" cy="259.9" r="1.3"/>
	</g>
	<g>
		<circle cx="171.7" cy="333.2" r="1.1"/>
	</g>
	<g>
		<circle cx="140.8" cy="210.4" r="0.7"/>
	</g>
	<g>
		<circle cx="170.9" cy="279.9" r="0.7"/>
	</g>
	<g>
		<circle cx="198.6" cy="349" r="1.1"/>
	</g>
	<g>
		<circle cx="248.8" cy="318.7" r="0.7"/>
	</g>
	<g>
		<circle cx="141.7" cy="350.8" r="0.6"/>
	</g>
	<g>
		<circle cx="140" cy="310.3" r="1.2"/>
	</g>
	<g>
		<circle cx="135" cy="236.2" r="0.8"/>
	</g>
	<g>
		<circle cx="138.7" cy="325.5" r="0.6"/>
	</g>
	<g>
		<circle cx="143.4" cy="250.4" r="0.9"/>
	</g>
	<g>
		<circle cx="121.5" cy="218.5" r="1.1"/>
	</g>
	<g>
		<circle cx="108.4" cy="197.7" r="0.7"/>
	</g>
	<g>
		<circle cx="87.3" cy="190.8" r="1.1"/>
	</g>
	<g>
		<circle cx="28.5" cy="106.5" r="1.1"/>
	</g>
	<g>
		<circle cx="69.7" cy="169.2" r="1"/>
	</g>
	<g>
		<circle cx="54.4" cy="157" r="1.2"/>
	</g>
	<g>
		<circle cx="70.5" cy="178.8" r="1.4"/>
	</g>
	<g>
		<circle cx="66.2" cy="148.4" r="1.1"/>
	</g>
	<g>
		<circle cx="77.9" cy="181.9" r="0.7"/>
	</g>
	<g>
		<circle cx="30.1" cy="127.5" r="0.9"/>
	</g>
	<g>
		<circle cx="209.6" cy="332.8" r="1.4"/>
	</g>
	<g>
		<circle cx="175.5" cy="268.4" r="0.7"/>
	</g>
	<g>
		<circle cx="169.8" cy="295.8" r="1.2"/>
	</g>
	<g>
		<circle cx="234.7" cy="362.5" r="0.7"/>
	</g>
	<g>
		<circle cx="233.4" cy="368.5" r="0.9"/>
	</g>
	<g>
		<circle cx="157.4" cy="255.7" r="1"/>
	</g>
	<g>
		<circle cx="176.1" cy="346.3" r="0.8"/>
	</g>
	<g>
		<circle cx="150.1" cy="333.5" r="0.6"/>
	</g>
	<g>
		<circle cx="79.3" cy="206.9" r="0.9"/>
	</g>
	<g>
		<circle cx="150.7" cy="330.2" r="0.7"/>
	</g>
	<g>
		<circle cx="248.2" cy="408.5" r="0.6"/>
	</g>
	<g>
		<circle cx="268.8" cy="405.7" r="1.3"/>
	</g>
	<g>
		<circle cx="240" cy="368.5" r="0.7"/>
	</g>
	<g>
		<circle cx="235.2" cy="365" r="0.9"/>
	</g>
	<g>
		<circle cx="268.7" cy="432.2" r="0.8"/>
	</g>
	<g>
		<circle cx="251.8" cy="381.4" r="0.6"/>
	</g>
	<g>
		<circle cx="207.4" cy="326.4" r="1"/>
	</g>
	<g>
		<circle cx="159.1" cy="269.3" r="1"/>
	</g>
	<g>
		<circle cx="148.4" cy="274.4" r="1.4"/>
	</g>
	<g>
		<circle cx="221.4" cy="384.4" r="1.2"/>
	</g>
	<g>
		<circle cx="182.6" cy="313.6" r="0.8"/>
	</g>
	<g>
		<circle cx="163.4" cy="261.3" r="0.9"/>
	</g>
	<g>
		<circle cx="234.7" cy="380.6" r="1.4"/>
	</g>
	<g>
		<circle cx="36.9" cy="141.8" r="1.4"/>
	</g>
	<g>
		<circle cx="27.6" cy="97.6" r="0.8"/>
	</g>
	<g>
		<circle cx="133.9" cy="225.6" r="0.7"/>
	</g>
	<g>
		<circle cx="95.2" cy="187.9" r="0.9"/>
	</g>
	<g>
		<circle cx="17.5" cy="61.3" r="0.8"/>
	</g>
	<g>
		<circle cx="132.5" cy="188.6" r="0.9"/>
	</g>
	<g>
		<circle cx="59.5" cy="52.7" r="1.3"/>
	</g>
	<g>
		<circle cx="188.5" cy="278.5" r="0.9"/>
	</g>
	<g>
		<circle cx="-2.9" cy="79.8" r="1"/>
	</g>
	<g>
		<circle cx="159" cy="275.8" r="1.3"/>
	</g>
	<g>
		<circle cx="165.1" cy="346.2" r="0.8"/>
	</g>
	<g>
		<circle cx="199.2" cy="337.6" r="1"/>
	</g>
	<g>
		<circle cx="170.9" cy="270.3" r="0.9"/>
	</g>
	<g>
		<circle cx="173.1" cy="242.7" r="0.9"/>
	</g>
	<g>
		<circle cx="93.1" cy="216.2" r="1.2"/>
	</g>
	<g>
		<circle cx="162.4" cy="314" r="0.7"/>
	</g>
	<g>
		<circle cx="170.8" cy="287.5" r="1.3"/>
	</g>
	<g>
		<circle cx="152.8" cy="292.2" r="1.2"/>
	</g>
	<g>
		<circle cx="165.7" cy="256.2" r="1.2"/>
	</g>
	<g>
		<circle cx="181" cy="360.5" r="0.8"/>
	</g>
	<g>
		<circle cx="65.2" cy="309.8" r="0.7"/>
	</g>
	<g>
		<circle cx="228" cy="397.6" r="1.2"/>
	</g>
	<g>
		<circle cx="167.3" cy="349.7" r="1.2"/>
	</g>
	<g>
		<circle cx="70.6" cy="238.1" r="1.1"/>
	</g>
	<g>
		<circle cx="125.8" cy="284.1" r="1.1"/>
	</g>
	<g>
		<circle cx="234.1" cy="382.9" r="0.7"/>
	</g>
	<g>
		<circle cx="277.6" cy="416.3" r="0.6"/>
	</g>
	<g>
		<circle cx="156.5" cy="298" r="1.4"/>
	</g>
	<g>
		<circle cx="170.3" cy="322.6" r="0.6"/>
	</g>
	<g>
		<circle cx="177.5" cy="336.4" r="1.1"/>
	</g>
	<g>
		<circle cx="54.9" cy="145.2" r="1.2"/>
	</g>
	<g>
		<circle cx="49.8" cy="151.9" r="0.9"/>
	</g>
	<g>
		<circle cx="116.2" cy="253.7" r="0.7"/>
	</g>
	<g>
		<circle cx="75.9" cy="188.8" r="0.7"/>
	</g>
	<g>
		<circle cx="97.1" cy="226.5" r="1.2"/>
	</g>
	<g>
		<circle cx="86.8" cy="264.8" r="1"/>
	</g>
	<g>
		<circle cx="123" cy="329.5" r="1"/>
	</g>
	<g>
		<circle cx="187.9" cy="351" r="1.3"/>
	</g>
	<g>
		<circle cx="166.3" cy="463.6" r="0.7"/>
	</g>
	<g>
		<circle cx="137.5" cy="413.4" r="1.2"/>
	</g>
	<g>
		<circle cx="52.3" cy="292.2" r="0.8"/>
	</g>
	<g>
		<circle cx="47.7" cy="250.8" r="1.3"/>
	</g>
	<g>
		<circle cx="50.9" cy="290.4" r="0.9"/>
	</g>
	<g>
		<circle cx="-28" cy="169.7" r="1.1"/>
	</g>
	<g>
		<circle cx="126.9" cy="317" r="0.6"/>
	</g>
	<g>
		<circle cx="37.6" cy="187.3" r="0.8"/>
	</g>
	<g>
		<circle cx="156.5" cy="444.8" r="1.3"/>
	</g>
	<g>
		<circle cx="54.6" cy="387.6" r="1.4"/>
	</g>
	<g>
		<circle cx="14" cy="383.6" r="1"/>
	</g>
	<g>
		<circle cx="28.7" cy="369.3" r="1"/>
	</g>
	<g>
		<circle cx="113" cy="404" r="1.2"/>
	</g>
	<g>
		<circle cx="27.5" cy="392" r="0.8"/>
	</g>
	<g>
		<circle cx="-99.7" cy="249.9" r="0.9"/>
	</g>
	<g>
		<circle cx="55.1" cy="392.2" r="1.1"/>
	</g>
	<g>
		<circle cx="-56.3" cy="217.5" r="0.9"/>
	</g>
	<g>
		<circle cx="62.6" cy="373.8" r="1.1"/>
	</g>
	<g>
		<circle cx="24.7" cy="323.2" r="1.4"/>
	</g>
	<g>
		<circle cx="140.5" cy="421.4" r="1.4"/>
	</g>
	<g>
		<circle cx="32" cy="236" r="0.9"/>
	</g>
	<g>
		<circle cx="341.9" cy="475.6" r="0.9"/>
	</g>
	<g>
		<circle cx="302" cy="439" r="0.6"/>
	</g>
	<g>
		<circle cx="270.7" cy="283.6" r="0.6"/>
	</g>
	<g>
		<circle cx="321.8" cy="425.9" r="0.6"/>
	</g>
	<g>
		<circle cx="276.8" cy="440.6" r="0.6"/>
	</g>
	<g>
		<circle cx="202.7" cy="236.3" r="0.7"/>
	</g>
	<g>
		<circle cx="320.9" cy="479.6" r="0.6"/>
	</g>
	<g>
		<circle cx="291.8" cy="427.2" r="1.2"/>
	</g>
	<g>
		<circle cx="227.7" cy="362.2" r="1.4"/>
	</g>
	<g>
		<circle cx="313.6" cy="457.4" r="0.9"/>
	</g>
	<g>
		<circle cx="278.2" cy="411.7" r="1.3"/>
	</g>
	<g>
		<circle cx="159.1" cy="288.6" r="0.7"/>
	</g>
	<g>
		<circle cx="124.5" cy="244.1" r="1.1"/>
	</g>
	<g>
		<circle cx="90.5" cy="178.7" r="1.3"/>
	</g>
	<g>
		<circle cx="216.5" cy="322.2" r="0.7"/>
	</g>
	<g>
		<circle cx="155.4" cy="467.6" r="1.3"/>
	</g>
	<g>
		<circle cx="130" cy="283.4" r="0.7"/>
	</g>
	<g>
		<circle cx="187.9" cy="406" r="0.7"/>
	</g>
	<g>
		<circle cx="146.5" cy="343" r="0.9"/>
	</g>
	<g>
		<circle cx="175.9" cy="366.5" r="0.9"/>
	</g>
	<g>
		<circle cx="165.8" cy="404.1" r="0.7"/>
	</g>
	<g>
		<circle cx="117.2" cy="344.9" r="0.6"/>
	</g>
	<g>
		<circle cx="139.5" cy="304.5" r="1.1"/>
	</g>
	<g>
		<circle cx="110.9" cy="322.9" r="1"/>
	</g>
	<g>
		<circle cx="67.9" cy="262.4" r="1.3"/>
	</g>
	<g>
		<circle cx="117.5" cy="319.8" r="0.9"/>
	</g>
	<g>
		<circle cx="180.4" cy="293.5" r="1"/>
	</g>
	<g>
		<circle cx="158.4" cy="179.8" r="0.8"/>
	</g>
	<circle cx="-37.6" cy="180.3" r="0.8"/>
	<circle cx="-49.2" cy="170.8" r="0.6"/>
	<circle cx="-56.3" cy="181.3" r="1.3"/>
	<g>
		<circle cx="-41.1" cy="186.5" r="0.8"/>
	</g>
	<circle cx="-45.2" cy="196.1" r="1.2"/>
	<circle cx="-34.4" cy="200.2" r="1.4"/>
	<circle cx="0.9" cy="151.1" r="1.4"/>
	<circle cx="-17.6" cy="134.1" r="0.9"/>
	<circle cx="-12.4" cy="130.5" r="1.2"/>
	<circle cx="-26.9" cy="137" r="1.3"/>
	<circle cx="-45.1" cy="114.9" r="1.3"/>
	<circle cx="-21.4" cy="131.3" r="0.6"/>
	<circle cx="-28" cy="148.6" r="1.3"/>
	<g>
		<circle cx="35.2" cy="158.4" r="1"/>
	</g>
	<g>
		<circle cx="30.6" cy="162.9" r="1.3"/>
	</g>
	<g>
		<circle cx="57.3" cy="204.4" r="0.7"/>
	</g>
	<g>
		<circle cx="-2.7" cy="190.3" r="1.4"/>
	</g>
	<g>
		<circle cx="-53.8" cy="115.2" r="0.7"/>
	</g>
	<circle cx="-61.3" cy="116.6" r="0.9"/>
	<g>
		<circle cx="-69.3" cy="142" r="1.2"/>
	</g>
	<g>
		<circle cx="-80.4" cy="125.3" r="1.3"/>
	</g>
	<circle cx="-91.2" cy="129.8" r="1"/>
	<g>
		<circle cx="-55.6" cy="125.2" r="1.2"/>
	</g>
	<g>
		<circle cx="-72.7" cy="132.1" r="1.3"/>
	</g>
	<circle cx="-48.6" cy="127.3" r="1.1"/>
	<circle cx="-69.4" cy="133" r="1.4"/>
	<circle cx="-86" cy="145.5" r="1.3"/>
	<circle cx="-83.3" cy="151.7" r="0.7"/>
	<circle cx="-77.7" cy="159.7" r="1"/>
	<circle cx="-89.2" cy="157" r="0.7"/>
	<circle cx="-89.9" cy="164.7" r="0.7"/>
	<circle cx="-86.7" cy="165.4" r="1"/>
	<circle cx="-77.2" cy="169.2" r="0.8"/>
	<circle cx="-48.7" cy="124.4" r="1"/>
	<circle cx="-51.7" cy="120.7" r="1.3"/>
	<circle cx="-48.8" cy="134.1" r="1.1"/>
	<circle cx="-43.8" cy="153.3" r="1.3"/>
	<circle cx="-50.2" cy="115.7" r="0.9"/>
	<circle cx="-85.4" cy="142.5" r="1.1"/>
	<circle cx="-85.7" cy="120" r="0.8"/>
	<circle cx="-89.5" cy="117.6" r="0.6"/>
	<circle cx="-95.5" cy="141.8" r="1"/>
	<circle cx="-86.9" cy="116.8" r="1.2"/>
	<circle cx="-92.8" cy="120.5" r="0.6"/>
	<circle cx="-96" cy="123.7" r="1.3"/>
	<circle cx="-80.1" cy="114.3" r="1.3"/>
	<circle cx="-87.9" cy="136.4" r="0.6"/>
	<circle cx="-93.9" cy="137.3" r="1.4"/>
	<circle cx="-96.7" cy="143.7" r="0.7"/>
	<g>
		<circle cx="-85.4" cy="167" r="0.9"/>
	</g>
	<g>
		<circle cx="-94.8" cy="149.6" r="1.1"/>
	</g>
	<circle cx="-94.3" cy="154.4" r="1.2"/>
	<circle cx="-92.3" cy="165.2" r="1"/>
	<circle cx="-80.1" cy="165.6" r="1.2"/>
	<circle cx="-88.5" cy="174.6" r="1.1"/>
	<circle cx="-73.9" cy="176.2" r="1.1"/>
	<circle cx="-79.8" cy="172.8" r="1.3"/>
	<circle cx="-65.9" cy="180.2" r="1.3"/>
	<circle cx="-26.9" cy="144.1" r="0.9"/>
	<circle cx="-54.8" cy="108.5" r="0.9"/>
	<circle cx="-24.6" cy="128" r="1.3"/>
	<circle cx="-16.2" cy="125.3" r="0.7"/>
	<g>
		<circle cx="61.2" cy="68.2" r="0.6"/>
	</g>
	<circle cx="49.5" cy="65.7" r="1"/>
	<circle cx="46.6" cy="64.2" r="1.4"/>
	<circle cx="26.2" cy="87" r="0.7"/>
	<circle cx="12.9" cy="104.4" r="1.2"/>
	<circle cx="28.8" cy="87.2" r="1.4"/>
	<g>
		<circle cx="42.9" cy="95.3" r="0.7"/>
	</g>
	<g>
		<circle cx="19.7" cy="116.7" r="0.9"/>
	</g>
	<circle cx="0.4" cy="122.7" r="0.8"/>
	<circle cx="15" cy="117.3" r="0.7"/>
	<circle cx="34.8" cy="111.4" r="0.9"/>
	<g>
		<circle cx="162.7" cy="72" r="1.4"/>
	</g>
	<g>
		<circle cx="154.4" cy="75.4" r="0.9"/>
	</g>
	<g>
		<circle cx="88" cy="72.5" r="0.7"/>
	</g>
	<g>
		<circle cx="171.8" cy="79.8" r="1.3"/>
	</g>
	<circle cx="127.7" cy="78.4" r="1.1"/>
	<circle cx="28.1" cy="120" r="0.8"/>
	<circle cx="140" cy="71.1" r="1.1"/>
	<circle cx="172.3" cy="67" r="0.6"/>
	<circle cx="193.5" cy="63.3" r="1.2"/>
	<circle cx="178.8" cy="78.6" r="0.6"/>
	<circle cx="203.7" cy="71.1" r="0.7"/>
	<circle cx="202.6" cy="78.8" r="1.3"/>
	<g>
		<circle cx="-104.1" cy="276.2" r="1"/>
	</g>
	<g>
		<circle cx="-119.4" cy="218.5" r="0.6"/>
	</g>
	<g>
		<circle cx="-84" cy="267.7" r="1.1"/>
	</g>
	<g>
		<circle cx="-43.5" cy="226.4" r="0.9"/>
	</g>
	<g>
		<circle cx="-88.1" cy="263.4" r="0.6"/>
	</g>
	<g>
		<circle cx="-37.7" cy="236.7" r="0.9"/>
	</g>
	<g>
		<circle cx="-93.6" cy="264.2" r="0.9"/>
	</g>
	<g>
		<circle cx="-44.4" cy="189.9" r="1.4"/>
	</g>
	<circle cx="-63.2" cy="263.4" r="1.4"/>
	<circle cx="-72.8" cy="229.5" r="0.9"/>
	<circle cx="-112" cy="212.4" r="1.2"/>
	<g>
		<circle cx="51.8" cy="255.6" r="1.1"/>
	</g>
	<g>
		<circle cx="-2.7" cy="228" r="1.2"/>
	</g>
	<circle cx="41.1" cy="150.7" r="1.3"/>
	<circle cx="-28.9" cy="182.9" r="1.1"/>
	<circle cx="-68.3" cy="173.8" r="1.1"/>
	<circle cx="-76.4" cy="180.2" r="1.4"/>
	<circle cx="-71.6" cy="163.6" r="0.9"/>
	<circle cx="-64.5" cy="183.7" r="1.1"/>
	<g>
		<circle cx="77.5" cy="76.3" r="0.8"/>
	</g>
	<g>
		<circle cx="93.7" cy="55.7" r="0.6"/>
	</g>
	<g>
		<circle cx="101.7" cy="63.2" r="1.1"/>
	</g>
	<g>
		<circle cx="108.3" cy="58" r="1.4"/>
	</g>
	<circle cx="86.3" cy="68.2" r="1.4"/>
	<g>
		<circle cx="66.4" cy="65.4" r="0.8"/>
	</g>
	<g>
		<circle cx="182.8" cy="85.3" r="1.1"/>
	</g>
	<g>
		<circle cx="178.3" cy="90.7" r="1.4"/>
	</g>
	<g>
		<circle cx="211.5" cy="88.4" r="1"/>
	</g>
	<g>
		<circle cx="202.6" cy="69.9" r="1.1"/>
	</g>
	<g>
		<circle cx="167.3" cy="57.9" r="1.1"/>
	</g>
	<g>
		<circle cx="146.1" cy="70.3" r="1.1"/>
	</g>
	<g>
		<circle cx="178.3" cy="65.3" r="1.3"/>
	</g>
	<circle cx="188.1" cy="74.7" r="1.1"/>
	<g>
		<circle cx="-4.4" cy="118.1" r="1.4"/>
	</g>
	<g>
		<circle cx="23" cy="121" r="1.3"/>
	</g>
	<g>
		<circle cx="36.1" cy="82.7" r="0.7"/>
	</g>
	<circle cx="27.7" cy="82.3" r="1.2"/>
	<circle cx="-16.2" cy="155.8" r="1.4"/>
	<circle cx="-50.7" cy="183.7" r="0.7"/>
	<g>
		<circle cx="-14.8" cy="230.7" r="1.4"/>
	</g>
	<g>
		<circle cx="-77.5" cy="184" r="0.7"/>
	</g>
	<g>
		<circle cx="29.5" cy="229.6" r="1.4"/>
	</g>
	<g>
		<circle cx="-31.6" cy="205.5" r="1.1"/>
	</g>
	<g>
		<circle cx="21.9" cy="233.1" r="0.9"/>
	</g>
	<g>
		<circle cx="148.2" cy="291.1" r="1.4"/>
	</g>
	<g>
		<circle cx="123.8" cy="237.9" r="0.7"/>
	</g>
	<g>
		<circle cx="67" cy="338.9" r="0.9"/>
	</g>
	<g>
		<circle cx="133.7" cy="316.3" r="1.4"/>
	</g>
	<g>
		<circle cx="116.2" cy="331.6" r="1.1"/>
	</g>
	<circle cx="97.4" cy="330.7" r="1"/>
	<circle cx="139.5" cy="244.7" r="0.9"/>
	<g>
		<circle cx="124.5" cy="229" r="1.4"/>
	</g>
	<g>
		<circle cx="113.9" cy="284.1" r="0.6"/>
	</g>
	<circle cx="12.9" cy="346" r="1.4"/>
	<g>
		<circle cx="32.7" cy="370.5" r="1"/>
	</g>
	<g>
		<circle cx="26" cy="385.9" r="1.4"/>
	</g>
	<g>
		<circle cx="-3" cy="374.2" r="0.7"/>
	</g>
	<g>
		<circle cx="36.3" cy="361.1" r="1.4"/>
	</g>
	<g>
		<circle cx="30.5" cy="338.2" r="1.3"/>
	</g>
	<g>
		<circle cx="2.9" cy="376.1" r="1"/>
	</g>
	<g>
		<circle cx="-2.7" cy="379.1" r="1.1"/>
	</g>
	<g>
		<circle cx="22" cy="377.4" r="1.3"/>
	</g>
	<g>
		<circle cx="35.4" cy="327" r="0.6"/>
	</g>
	<g>
		<circle cx="87.4" cy="317.2" r="0.8"/>
	</g>
	<circle cx="51.1" cy="305.8" r="0.7"/>
	<circle cx="49.8" cy="316" r="1.1"/>
	<circle cx="7.3" cy="358.2" r="0.9"/>
	<circle cx="0" cy="361.9" r="0.6"/>
	<g>
		<circle cx="3.2" cy="388.8" r="1"/>
	</g>
	<g>
		<circle cx="63.8" cy="392.2" r="0.9"/>
	</g>
	<circle cx="2.8" cy="352.6" r="0.9"/>
	<circle cx="36.1" cy="379.7" r="1.1"/>
	<circle cx="8.4" cy="351.5" r="1.4"/>
	<circle cx="0.3" cy="353" r="0.6"/>
	<circle cx="-6.7" cy="369.1" r="1"/>
	<circle cx="7.9" cy="353" r="1"/>
	<circle cx="21.2" cy="327.4" r="0.9"/>
	<g>
		<circle cx="4.7" cy="370.9" r="0.7"/>
	</g>
	<g>
		<circle cx="45.8" cy="399.9" r="0.7"/>
	</g>
	<g>
		<circle cx="119.2" cy="401.1" r="1.2"/>
	</g>
	<g>
		<circle cx="50.9" cy="331.9" r="1.4"/>
	</g>
	<g>
		<circle cx="59.8" cy="310.4" r="1.3"/>
	</g>
	<g>
		<circle cx="15.2" cy="354" r="0.9"/>
	</g>
	<g>
		<circle cx="12.9" cy="369" r="1.4"/>
	</g>
	<g>
		<circle cx="30.7" cy="390.6" r="1"/>
	</g>
	<g>
		<circle cx="41.3" cy="380.2" r="0.6"/>
	</g>
	<circle cx="41.7" cy="397.1" r="0.8"/>
	<g>
		<circle cx="55" cy="303.2" r="0.7"/>
	</g>
	<g>
		<circle cx="30.3" cy="324.2" r="1.3"/>
	</g>
	<g>
		<circle cx="108.9" cy="262.5" r="1.3"/>
	</g>
	<g>
		<circle cx="72.3" cy="303.1" r="1.1"/>
	</g>
	<g>
		<circle cx="-27.3" cy="157" r="1.4"/>
	</g>
	<g>
		<circle cx="-57.6" cy="146.3" r="1.3"/>
	</g>
	<circle cx="-5.8" cy="160.1" r="1.4"/>
	<circle cx="24.9" cy="138.7" r="1"/>
	<circle cx="-17.3" cy="124.5" r="0.7"/>
	<circle cx="1.3" cy="127.8" r="1"/>
	<circle cx="11.5" cy="114.6" r="1"/>
	<circle cx="29.3" cy="94.5" r="1"/>
	<circle cx="42" cy="97.3" r="0.6"/>
	<circle cx="-65.9" cy="116.8" r="0.9"/>
	<g>
		<circle cx="-78.6" cy="125.1" r="0.9"/>
	</g>
	<g>
		<circle cx="-71.9" cy="114.9" r="1.4"/>
	</g>
	<g>
		<circle cx="-56" cy="124.5" r="0.8"/>
	</g>
	<g>
		<circle cx="-81" cy="131.1" r="1.4"/>
	</g>
	<circle cx="-88.2" cy="126.6" r="1.4"/>
	<circle cx="-110.7" cy="233.7" r="1.1"/>
	<g>
		<circle cx="-104.1" cy="261.8" r="1"/>
	</g>
	<g>
		<circle cx="-120.2" cy="192" r="0.8"/>
	</g>
	<g>
		<circle cx="-110.2" cy="169.3" r="0.6"/>
	</g>
	<g>
		<circle cx="-120.9" cy="163.6" r="0.7"/>
	</g>
	<circle cx="-111.5" cy="181.5" r="0.8"/>
	<circle cx="-110.9" cy="144.8" r="1.1"/>
	<circle cx="202.8" cy="69.5" r="1"/>
	<g>
		<circle cx="186.4" cy="403.1" r="1.2"/>
	</g>
	<g>
		<circle cx="175.5" cy="416.8" r="1.4"/>
	</g>
	<g>
		<circle cx="182" cy="401.9" r="0.9"/>
	</g>
	<g>
		<circle cx="170.6" cy="428.1" r="0.8"/>
	</g>
	<g>
		<circle cx="171.8" cy="444.1" r="1.2"/>
	</g>
	<g>
		<circle cx="176.6" cy="437.4" r="0.6"/>
	</g>
	<g>
		<circle cx="179.5" cy="395.3" r="1.2"/>
	</g>
	<circle cx="164.4" cy="401" r="1.3"/>
	<g>
		<circle cx="73" cy="367.8" r="1.1"/>
	</g>
	<g>
		<circle cx="95.2" cy="378.8" r="1.1"/>
	</g>
	<g>
		<circle cx="322.3" cy="466.6" r="1"/>
	</g>
	<g>
		<circle cx="248.2" cy="408.5" r="1.2"/>
	</g>
	<g>
		<circle cx="247.4" cy="400.4" r="1.1"/>
	</g>
	<g>
		<circle cx="195.5" cy="365.7" r="0.6"/>
	</g>
	<g>
		<circle cx="129.4" cy="324.9" r="1.3"/>
	</g>
	<g>
		<circle cx="276.2" cy="434.2" r="0.6"/>
	</g>
	<g>
		<circle cx="260.7" cy="413.5" r="1"/>
	</g>
	<g>
		<circle cx="293.7" cy="448.4" r="0.7"/>
	</g>
	<g>
		<circle cx="291.8" cy="444.6" r="1.1"/>
	</g>
	<g>
		<circle cx="241.4" cy="390.4" r="1.3"/>
	</g>
	<g>
		<circle cx="341.2" cy="489.5" r="0.7"/>
	</g>
	<g>
		<circle cx="348.9" cy="484.5" r="0.7"/>
	</g>
	<circle cx="343.8" cy="481.9" r="1.4"/>
	<g>
		<circle cx="270.6" cy="428.1" r="1"/>
	</g>
	<g>
		<circle cx="333.2" cy="475.9" r="1.4"/>
	</g>
	<g>
		<circle cx="226.1" cy="192.3" r="0.6"/>
	</g>
	<g>
		<circle cx="261.7" cy="224.5" r="0.8"/>
	</g>
	<g>
		<circle cx="228.6" cy="155.7" r="0.6"/>
	</g>
	<g>
		<circle cx="71" cy="270.2" r="1.1"/>
	</g>
	<g>
		<circle cx="69.7" cy="162.7" r="1.1"/>
	</g>
	<g>
		<circle cx="106.9" cy="178.9" r="0.6"/>
	</g>
	<g>
		<circle cx="156.5" cy="287.9" r="0.8"/>
	</g>
	<g>
		<circle cx="156.5" cy="280.4" r="0.9"/>
	</g>
	<g>
		<circle cx="135.7" cy="249.9" r="1.3"/>
	</g>
	<g>
		<circle cx="208.3" cy="211.4" r="0.9"/>
	</g>
	<g>
		<circle cx="124.2" cy="131.7" r="1.2"/>
	</g>
	<g>
		<circle cx="181.9" cy="351.8" r="1"/>
	</g>
	<g>
		<circle cx="148.5" cy="283" r="0.8"/>
	</g>
	<g>
		<circle cx="139.3" cy="293.2" r="1.3"/>
	</g>
	<g>
		<circle cx="112.6" cy="221.6" r="0.9"/>
	</g>
	<g>
		<circle cx="103.6" cy="207.3" r="0.9"/>
	</g>
	<g>
		<circle cx="72.1" cy="142.6" r="0.7"/>
	</g>
	<g>
		<circle cx="40.2" cy="132.5" r="1.3"/>
	</g>
	<g>
		<circle cx="115.7" cy="215.6" r="0.6"/>
	</g>
	<g>
		<circle cx="153.7" cy="263.1" r="0.9"/>
	</g>
	<g>
		<circle cx="177.3" cy="256.8" r="0.6"/>
	</g>
	<circle cx="208.6" cy="62.3" r="0.8"/>
	<g>
		<circle cx="374.2" cy="288.1" r="0.7"/>
	</g>
	<g>
		<circle cx="406.2" cy="222.7" r="0.8"/>
	</g>
	<g>
		<circle cx="399.8" cy="198.2" r="0.8"/>
	</g>
	<g>
		<circle cx="366.4" cy="525.4" r="0.7"/>
	</g>
	<g>
		<circle cx="353.8" cy="540.2" r="1"/>
	</g>
	<g>
		<circle cx="359.5" cy="498.1" r="0.9"/>
	</g>
	<g>
		<circle cx="363.1" cy="480.7" r="1.4"/>
	</g>
	<g>
		<circle cx="369.1" cy="493" r="1.3"/>
	</g>
	<g>
		<circle cx="340.4" cy="556.7" r="1.2"/>
	</g>
	<g>
		<circle cx="367.4" cy="499.8" r="1.3"/>
	</g>
	<g>
		<circle cx="363.8" cy="480.7" r="0.7"/>
	</g>
	<g>
		<circle cx="365.2" cy="474.5" r="1"/>
	</g>
	<g>
		<circle cx="367.1" cy="484.5" r="1.2"/>
	</g>
	<g>
		<circle cx="358.3" cy="509.9" r="0.8"/>
	</g>
	<g>
		<circle cx="368.7" cy="460.6" r="0.9"/>
	</g>
	<g>
		<circle cx="341.5" cy="374.4" r="0.7"/>
	</g>
	<g>
		<circle cx="322" cy="288.6" r="0.7"/>
	</g>
	<g>
		<circle cx="313.4" cy="155.4" r="1.1"/>
	</g>
	<g>
		<circle cx="359" cy="266.2" r="0.7"/>
	</g>
	<g>
		<circle cx="351.3" cy="526" r="1.2"/>
	</g>
	<g>
		<circle cx="370.4" cy="474.8" r="1.1"/>
	</g>
	<g>
		<circle cx="369.7" cy="538.9" r="1.3"/>
	</g>
	<g>
		<circle cx="363.9" cy="458" r="0.7"/>
	</g>
	<circle cx="356.7" cy="474.5" r="1"/>
	<circle cx="179.4" cy="230.4" r="0.8"/>
	<g>
		<circle cx="158.8" cy="270.2" r="0.6"/>
	</g>
	<g>
		<circle cx="158.2" cy="248.6" r="0.8"/>
	</g>
	<g>
		<circle cx="305.2" cy="448.5" r="0.7"/>
	</g>
	<g>
		<circle cx="225.4" cy="288.8" r="0.6"/>
	</g>
	<g>
		<circle cx="200.5" cy="216.3" r="1.4"/>
	</g>
	<g>
		<circle cx="265.5" cy="420.5" r="1"/>
	</g>
</g>
<g id="Í_xBC__xB2_ã_x5F_9" class="st1">
	<polygon class="st2" points="-93.9,137.3 -95.5,141.8 -87.9,136.4 	"/>
	<polygon class="st2" points="-93.6,146.3 -94.8,149.6 -91.2,151.8 	"/>
	<polygon class="st2" points="-86,145.5 -94.8,149.6 -93.6,146.3 	"/>
	<polygon class="st2" points="-93.9,137.3 -86,145.5 -93.6,146.3 	"/>
	<polygon class="st2" points="-95.5,141.8 -96.5,131.3 -91.2,129.8 	"/>
	<polygon class="st2" points="-96,123.7 -93.9,137.3 -91.2,129.8 	"/>
	<polygon class="st2" points="-91.5,121.7 -96.5,131.3 -88.2,126.6 	"/>
	<polygon class="st2" points="-92.8,120.5 -86.9,116.8 -91.5,121.7 	"/>
	<polygon class="st2" points="-85.7,120 -84.5,127.3 -96,123.7 	"/>
	<polygon class="st2" points="-86.9,116.8 -80.1,114.3 -78.2,120.9 	"/>
	<polygon class="st2" points="-94.3,154.4 -93.9,157.1 -91.2,151.8 	"/>
	<polygon class="st2" points="-92.1,159.3 -96.3,164 -92.3,165.2 	"/>
	<polygon class="st2" points="-93.7,165.7 -92.1,159.3 -93.9,157.1 	"/>
	<polygon class="st2" points="-91.5,169.7 -92.3,165.2 -86.6,162.6 	"/>
	<polygon class="st2" points="-88.5,174.6 -92.3,165.2 -85.4,167 	"/>
	<polygon class="st2" points="-92.1,159.3 -77.7,159.7 -91.2,151.8 	"/>
	<polygon class="st2" points="-89.2,157 -88.6,159.4 -84.5,153.6 	"/>
	<polygon class="st2" points="-86.6,162.6 -94.3,154.4 -91.2,151.8 	"/>
	<polygon class="st2" points="-92.1,159.3 -89.9,164.7 -92.3,165.2 	"/>
	<polygon class="st2" points="-84.2,175.4 -73.9,176.2 -79.8,172.8 	"/>
	<polygon class="st2" points="-88.5,174.6 -86.6,162.6 -84.2,175.4 	"/>
	<polygon class="st2" points="-91.5,169.7 -79.8,172.8 -88.5,174.6 	"/>
	<polygon class="st2" points="-93.7,165.7 -91.5,169.7 -85.4,167 	"/>
	<polygon class="st2" points="-76.4,180.2 -79.8,172.8 -73.9,176.2 	"/>
	<polygon class="st2" points="-73.1,185.4 -76.4,180.2 -64.5,183.7 	"/>
	<polygon class="st2" points="-66.5,189.3 -76.4,180.2 -73.9,176.2 	"/>
	<polygon class="st2" points="-69.3,188.9 -71.9,181.5 -73.1,185.4 	"/>
	<polygon class="st2" points="-80.1,165.6 -77.7,159.7 -86.6,162.6 	"/>
	<polygon class="st2" points="-71.6,163.6 -73.9,176.2 -76.4,180.2 	"/>
	<polygon class="st2" points="-77.7,159.7 -84.5,153.6 -86,145.5 	"/>
	<polygon class="st2" points="-76.4,180.2 -84.2,175.4 -79.8,172.8 	"/>
	<polygon class="st2" points="-57.6,146.3 -69.3,142 -71.6,163.6 	"/>
	<polygon class="st2" points="-69.4,133 -72.7,132.1 -71.5,121.8 	"/>
	<polygon class="st2" points="-71.9,114.9 -59.8,120.3 -71.5,121.8 	"/>
	<polygon class="st2" points="-85.7,120 -72.7,106.5 -86.9,116.8 	"/>
	<polygon class="st2" points="-80.1,114.3 -61.3,116.6 -63.1,112.3 	"/>
	<polyline class="st2" points="-53.8,115.2 -51.7,120.7 -65.9,116.8 -54.2,115.2 	"/>
	<polygon class="st2" points="-55.6,125.2 -63.1,112.3 -47.6,119.7 	"/>
	<polygon class="st2" points="-72.7,106.5 -63.1,112.3 -71.9,114.9 	"/>
	<polygon class="st2" points="-81,131.1 -85.4,142.5 -93.9,137.3 	"/>
	<polygon class="st2" points="-80.4,125.3 -69.4,133 -91.2,129.8 	"/>
	<polygon class="st2" points="-78.2,120.9 -59.8,120.3 -72.7,132.1 	"/>
	<polygon class="st2" points="-48.7,124.4 -48.8,134.1 -52.4,130.3 	"/>
	<polygon class="st2" points="-69.4,133 -69.3,142 -52.4,130 	"/>
	<polygon class="st2" points="-62.3,121.2 -55.6,125.2 -69.4,133 	"/>
	<polygon class="st2" points="-38.4,126.7 -50.2,115.7 -63.1,112.3 	"/>
	<polygon class="st2" points="-54.8,108.5 -71.9,114.9 -45.1,114.9 	"/>
	<polygon class="st2" points="-86,145.5 -79.5,148.4 -69.3,142 	"/>
	<polygon class="st2" points="-81.2,131.1 -79.5,148.4 -69.3,142 	"/>
	<path class="st2" d="M-39.3,140.4"/>
	<polygon class="st2" points="-42.7,136.7 -55.6,125.2 -38.4,126.7 	"/>
	<polygon class="st2" points="-39.3,140.4 -57.6,146.3 -55.6,125.2 	"/>
	<polygon class="st2" points="-56.3,181.3 -73.1,185.4 -66.5,189.3 	"/>
	<polygon class="st2" points="-65.9,180.2 -76.4,180.2 -73.1,185.4 	"/>
	<polygon class="st2" points="-68.3,173.8 -64.6,183.6 -76.4,180.2 	"/>
	<polygon class="st2" points="-58.6,164.2 -84.5,153.6 -69.3,142 	"/>
	<polygon class="st2" points="-49.2,170.8 -58.6,164.2 -65.9,180.1 	"/>
	<polygon class="st2" points="-56.3,181.3 -58.6,164.2 -64.6,183.6 	"/>
	<polygon class="st2" points="-73.9,176.2 -86.6,162.6 -77.7,159.7 	"/>
	<polygon class="st2" points="-77.7,159.7 -68.3,173.8 -58.6,164.2 	"/>
	<polygon class="st2" points="-96.7,143.7 -95.5,141.8 -91.2,151.8 	"/>
	<polygon class="st2" points="-94.8,149.6 -87.9,136.4 -85.4,142.5 	"/>
	<polygon class="st2" points="-84.5,153.6 -91.2,151.8 -86.2,148.4 	"/>
	<polygon class="st2" points="-95.5,141.8 -86.2,148.4 -85.4,142.5 	"/>
	<polygon class="st2" points="-91.2,129.8 -87.9,136.4 -88.5,126.7 	"/>
	<polygon class="st2" points="-98.1,137.9 -96.5,131.3 -93.9,137.3 	"/>
	<polygon class="st2" points="-96.7,143.7 -98.1,137.9 -95.5,141.8 	"/>
	<polygon class="st2" points="-93.6,172.8 -93.9,157.1 -91.5,169.7 	"/>
	<polygon class="st2" points="-77.5,184 -73.1,185.4 -76.4,180.2 	"/>
	<polygon class="st2" points="-24.6,128 -26.9,137 -12.4,130.5 	"/>
	<polygon class="st2" points="-26.9,137 -29.9,143.5 -28,148.6 	"/>
	<polygon class="st2" points="-26.9,137 -8.9,122 -3,130.3 	"/>
	<polygon class="st2" points="-26.9,137 -17.3,124.5 -15.5,128.6 	"/>
	<polygon class="st2" points="-3,130.3 -17.3,124.5 -12.4,119.2 	"/>
	<polygon class="st2" points="-4.4,118.1 -12.4,130.5 0.4,122.7 	"/>
	<polygon class="st2" points="7.9,111.6 -8.9,122 -3,130.3 	"/>
	<polygon class="st2" points="11.5,114.6 28.8,87.2 12.9,104.4 	"/>
	<polygon class="st2" points="7.9,111.6 12.9,104.4 28.5,106.5 	"/>
	<polygon class="st2" points="23,121 -4.4,118.1 -5.8,160.1 	"/>
	<polygon class="st2" points="-35,147.1 -43.8,153.3 -16.2,155.8 	"/>
	<polygon class="st2" points="-26.9,137 4.3,135.3 -27.3,157 	"/>
	<polygon class="st2" points="-35,147.1 -39.3,140.4 -58.6,164.2 	"/>
	<polygon class="st2" points="-43.8,153.3 -57.6,146.3 -56.3,181.3 	"/>
	<polygon class="st2" points="-34.6,171.5 -28.9,182.9 -56.3,181.3 	"/>
	<polygon class="st2" points="-34.6,171.5 -43.8,153.3 -27.3,157 	"/>
	<polygon class="st2" points="41.1,150.7 0.9,151.1 23,121 	"/>
	<polygon class="st2" points="23,121 25.3,133.9 33.7,118.9 	"/>
	<polygon class="st2" points="19.7,116.7 25.3,133.9 -3,130.3 	"/>
	<polygon class="st2" points="54,59.1 86.3,68.2 47.6,73.4 	"/>
	<polygon class="st2" points="46.6,64.2 66.4,65.4 45.2,69.7 	"/>
	<polygon class="st2" points="70.3,56.3 54,59.1 49.5,65.7 	"/>
	<polygon class="st2" points="39.8,71.9 28.8,87.2 27.7,82.3 	"/>
	<polygon class="st2" points="34.7,78 55.7,87.1 49.5,65.7 	"/>
	<polygon class="st2" points="29.3,94.5 47.6,73.4 28.8,87.2 	"/>
	<polygon class="st2" points="39.8,71.9 47.6,73.4 26.2,87 	"/>
	<polygon class="st2" points="33.7,118.9 42.9,95.3 55.7,87.1 	"/>
	<polygon class="st2" points="28.5,106.5 33.7,118.9 47.6,73.4 	"/>
	<polygon class="st2" points="111.2,69 86.3,68.2 77.3,76.2 	"/>
	<polygon class="st2" points="160.1,77.8 146.1,70.3 140,71.1 	"/>
	<polygon class="st2" points="108.3,58 86.3,68.2 140,71.1 	"/>
	<polygon class="st2" points="70.3,56.3 111.2,69 86.3,68.2 	"/>
	<polygon class="st2" points="70.3,56.3 88,72.5 111.2,69 	"/>
	<polygon class="st2" points="121.7,56.5 130.2,66.1 120,61.2 	"/>
	<polygon class="st2" points="193.5,63.3 187.4,61.5 178.3,65.3 	"/>
	<polygon class="st2" points="162.7,72 160.8,82.4 154.4,75.4 	"/>
	<polygon class="st2" points="170.8,75.9 178.3,90.7 168.4,86.2 	"/>
	<polygon class="st2" points="162.7,72 171.8,79.8 160.1,77.8 	"/>
	<polygon class="st2" points="202.6,69.9 217.3,79.5 213.1,74.4 	"/>
	<polygon class="st2" points="178.2,97.3 171.8,79.8 178.8,78.6 	"/>
	<polygon class="st2" points="210.3,91.5 211.5,88.4 212.9,89.2 	"/>
	<polygon class="st2" points="211.5,88.4 202.6,78.8 188.1,74.7 	"/>
	<polygon class="st2" points="202.6,69.9 202.6,78.8 178.8,78.6 	"/>
	<polygon class="st2" points="195.5,94.5 182.8,85.3 168.4,86.2 	"/>
	<polygon class="st2" points="187.4,61.5 162.7,72 171.8,79.8 	"/>
	<polygon class="st2" points="178.2,65.4 202.6,78.8 187.4,61.5 	"/>
	<polygon class="st2" points="178.2,65.4 130.2,66.1 127.7,78.4 	"/>
	<polygon class="st2" points="-16.2,125.3 -21.4,131.3 -15.5,128.6 	"/>
	<polygon class="st2" points="-17.3,124.5 0.4,122.7 -3,130.3 	"/>
	<polygon class="st2" points="-2.2,120.8 1.3,127.8 11.5,114.6 	"/>
	<polygon class="st2" points="19.7,116.7 27.6,97.6 11.5,114.6 	"/>
	<polygon class="st2" points="-44.4,189.9 -45.2,196.1 -34.4,200.2 	"/>
	<polygon class="st2" points="-49.2,170.8 -44.4,189.9 -34.6,171.5 	"/>
	<polygon class="st2" points="-42.7,136.7 -29.9,143.5 -35,147.1 	"/>
	<polygon class="st2" points="-37.1,133.9 -42.7,136.7 -26.9,137 	"/>
	<polygon class="st2" points="-41.1,186.5 -37.1,213.1 -34.4,200.2 	"/>
	<polygon class="st2" points="-44.4,189.9 -32.9,185.6 -37.6,180.3 	"/>
	<polygon class="st2" points="-28.7,225.3 -37.1,213.1 -12.6,222.9 	"/>
	<polygon class="st2" points="-14.8,230.7 -28.7,225.3 -28.7,212.7 	"/>
	<polygon class="st2" points="-2.7,228 -28.7,225.3 -31.6,205.5 	"/>
	<polygon class="st2" points="-2.7,190.3 -28.7,212.7 -28.9,182.9 	"/>
	<polygon class="st2" points="-5.8,160.1 30.6,162.9 -2.7,190.3 	"/>
	<polygon class="st2" points="-27.3,157 -5.8,160.1 -28.9,182.9 	"/>
	<polygon class="st2" points="30.6,162.9 0.9,151.1 20.5,193.5 	"/>
	<polygon class="st2" points="40.2,132.5 54.4,157 35.2,158.4 	"/>
	<polygon class="st2" points="40.2,132.5 23,121 25.3,133.9 	"/>
	<polygon class="st2" points="70.5,178.8 30.6,162.9 54.4,157 	"/>
	<polygon class="st2" points="29.5,229.6 -2.7,228 20.5,193.5 	"/>
	<polygon class="st2" points="70.6,238.1 70.5,178.8 29.5,229.6 	"/>
	<polygon class="st2" points="87.3,190.8 69.7,169.2 20.5,193.5 	"/>
	<polygon class="st2" points="67.9,262.4 29.5,229.6 70.6,238.1 	"/>
	<polygon class="st2" points="25.3,247.6 70.6,238.1 29.5,229.6 	"/>
	<polygon class="st2" points="157.4,255.7 170.8,287.5 159,275.8 	"/>
	<polygon class="st2" points="149.8,259.9 148.2,291.1 170.8,287.5 	"/>
	<polygon class="st2" points="157.4,255.7 147.9,242.6 135.7,249.9 	"/>
	<polygon class="st2" points="159,275.8 108.9,262.5 89.8,277.3 	"/>
	<polygon class="st2" points="50.9,290.4 108.9,262.5 125.8,284.1 	"/>
	<polygon class="st2" points="50.9,290.4 41.2,305.6 56.2,294.1 	"/>
	<polygon class="st2" points="24.7,323.2 50.9,290.4 49.8,316 	"/>
	<polygon class="st2" points="71,270.2 56.2,294.1 89.8,277.3 	"/>
	<polygon class="st2" points="108.9,262.5 47.7,250.8 71,270.2 	"/>
	<polygon class="st2" points="135.7,249.9 159,275.8 125.8,284.1 	"/>
	<polygon class="st2" points="-6.7,369.1 3.2,388.8 2.9,376.1 	"/>
	<polygon class="st2" points="4.2,357.5 -2.7,379.1 12.9,369 	"/>
	<polygon class="st2" points="24.7,323.2 2.8,352.6 15.2,354 	"/>
	<polygon class="st2" points="30.3,324.2 24.7,323.2 4.2,357.5 	"/>
	<polygon class="st2" points="159,275.8 149.5,300.7 100.5,326.4 	"/>
	<polygon class="st2" points="50.9,331.9 100.5,326.4 62,347.7 	"/>
	<polygon class="st2" points="59.8,310.4 30.5,338.2 30.3,324.2 	"/>
	<polygon class="st2" points="89.8,277.3 100.5,326.4 59.8,310.4 	"/>
	<polygon class="st2" points="125.8,284.1 149.5,300.7 59.8,310.4 	"/>
	<polygon class="st2" points="73,367.8 36.1,379.7 36.3,361.1 	"/>
	<polygon class="st2" points="12.9,369 36.1,379.7 3.2,388.8 	"/>
	<polygon class="st2" points="15.2,354 62,347.7 36.3,361.1 	"/>
	<polygon class="st2" points="12.9,369 15.2,354 -6.7,369.1 	"/>
	<polygon class="st2" points="30.5,338.2 50.9,331.9 36.3,361.1 	"/>
	<polygon class="st2" points="4.2,357.5 30.5,338.2 14.8,335 	"/>
	<polygon class="st2" points="2.8,352.6 4.2,357.5 2.9,376.1 	"/>
	<polygon class="st2" points="0,361.9 -6.7,369.1 0.3,353 	"/>
	<polygon class="st2" points="0.3,353 7.3,358.2 12.9,369 	"/>
	<polygon class="st2" points="23.4,359.9 36.3,361.1 22,377.4 	"/>
	<polygon class="st2" points="30.5,338.2 23.4,359.9 15.2,354 	"/>
	<polygon class="st2" points="2.8,388.8 14,383.6 0.4,380.5 	"/>
	<polygon class="st2" points="27.5,392 14,383.6 26,385.9 	"/>
	<polygon class="st2" points="22,377.4 14,383.6 42.9,387.3 	"/>
	<polygon class="st2" points="95.2,378.8 73,367.8 70.5,381.2 	"/>
	<polygon class="st2" points="42.9,387.3 54.6,387.6 41.7,397.1 	"/>
	<polygon class="st2" points="90.9,393.3 54.6,387.6 70.5,381.2 	"/>
	<polygon class="st2" points="119.2,401.1 103.9,389.9 90.9,393.3 	"/>
	<polygon class="st2" points="95.2,378.8 103.9,389.9 54.6,387.6 	"/>
	<polygon class="st2" points="164.2,395 142.7,395.8 157.4,402.7 	"/>
	<polygon class="st2" points="171.8,389.7 179,406 164.4,401 	"/>
	<polygon class="st2" points="186.4,403.1 175.5,416.8 170,406 	"/>
	<polygon class="st2" points="171.8,389.7 179.5,395.3 175.5,416.8 	"/>
	<polygon class="st2" points="164.4,401 170.6,428.1 170,406 	"/>
	<polygon class="st2" points="157.8,420.4 170,406 157.4,402.7 	"/>
	<polygon class="st2" points="144.5,408.2 103.9,389.9 137.5,413.4 	"/>
	<polygon class="st2" points="142.7,395.8 144.5,408.2 157.8,420.4 	"/>
	<polygon class="st2" points="151.4,421.9 156.5,444.8 162.7,436.2 	"/>
	<polygon class="st2" points="155.4,467.6 166.3,463.6 167.4,448.4 	"/>
	<polygon class="st2" points="162.7,436.2 170.6,428.1 167.4,448.4 	"/>
	<polygon class="st2" points="175.5,416.8 155.4,467.6 171.8,444.1 	"/>
	<polygon class="st2" points="186.4,403.1 182.3,421.9 167.4,448.4 	"/>
	<polygon class="st2" points="142.7,395.8 95.2,378.8 119,400.9 	"/>
	<polygon class="st2" points="70.9,403.5 55.1,392.2 63.8,392.2 	"/>
	<polygon class="st2" points="113,404 144.5,408.2 119,400.9 	"/>
	<polygon class="st2" points="129.4,324.9 146.5,343 153.4,337.1 	"/>
	<polygon class="st2" points="133.7,316.3 149.5,300.7 166,321.7 	"/>
	<polygon class="st2" points="117.5,319.8 137.2,337.7 133.7,316.3 	"/>
	<polygon class="st2" points="209.6,332.8 166,321.7 187.9,351 	"/>
	<polygon class="st2" points="153.4,337.1 165.1,352.9 160.3,336.2 	"/>
	<polygon class="st2" points="287.2,413.5 291.8,427.2 278.2,411.7 	"/>
	<polygon class="st2" points="268.8,405.7 241.4,390.4 248.5,399.6 270.6,428.1 	"/>
	<polygon class="st2" points="278.2,411.7 248.2,408.5 241.4,390.4 	"/>
	<polygon class="st2" points="227.7,362.2 268.7,405.6 228,397.6 	"/>
	<polygon class="st2" points="187,370.9 177.1,336.2 187.9,351 	"/>
	<polygon class="st2" points="187,370.9 234.7,380.6 228,397.6 	"/>
	<polygon class="st2" points="368.7,460.6 343.8,481.9 363.1,480.7 	"/>
	<polygon class="st2" points="367.1,484.5 356.7,474.5 353.8,485.4 	"/>
	<polygon class="st2" points="363.9,458 368.7,460.6 363.1,480.6 	"/>
	<polygon class="st2" points="333.2,475.9 356.7,474.5 343.8,481.9 	"/>
	<polygon class="st2" points="322.3,466.6 343.8,481.9 306.9,476.6 	"/>
	<polygon class="st2" points="309.2,462.6 270.6,428.1 300.2,443.8 	"/>
	<polygon class="st2" points="309.2,462.6 333.2,475.9 322.3,466.6 	"/>
	<polygon class="st2" points="367.1,484.5 367.4,499.8 359.5,498.1 	"/>
	<polygon class="st2" points="369.7,538.9 370.4,551.3 357.6,555.8 	"/>
	<polygon class="st2" points="358.6,520.8 370.4,551.3 353.8,540.2 	"/>
	<polygon class="st2" points="343.8,481.9 367.4,499.8 358.6,520.8 	"/>
	<polygon class="st2" points="359.5,498.1 369.7,538.9 351.3,526 	"/>
	<polygon class="st2" points="353.8,485.4 358.6,520.8 369.1,493 	"/>
	<polygon class="st2" points="340.4,556.7 370.4,551.3 369.7,538.9 	"/>
	<polygon class="st2" points="103.6,207.3 112.6,221.6 93.1,216.2 	"/>
	<polygon class="st2" points="124.5,244.1 112.6,221.6 121.5,218.5 	"/>
	<polygon class="st2" points="90.5,178.7 70.5,178.8 69.7,169.2 	"/>
	<polygon class="st2" points="69.7,162.7 69.7,169.2 30.6,162.9 	"/>
	<polygon class="st2" points="41.1,150.7 69.7,169.2 54.9,145.2 	"/>
	<path class="st2" d="M43.2,146.5"/>
	<polygon class="st2" points="152.8,292.2 139.5,304.5 148.2,291.1 	"/>
	<polygon class="st2" points="164.2,282.5 156.5,298 149.5,300.7 	"/>
	<polygon class="st2" points="152.8,292.2 156.5,298 159,275.8 	"/>
	<polygon class="st2" points="163.4,261.3 159,275.8 149.8,259.9 	"/>
	<polygon class="st2" points="157.4,255.7 143.4,250.4 149.8,259.9 	"/>
	<path class="st2" d="M143.4,250.4"/>
	<polygon class="st2" points="124.5,244.1 139.5,244.7 143.4,250.4 	"/>
	<polygon class="st2" points="123.9,237.9 147.9,242.6 135.7,249.9 	"/>
	<polygon class="st2" points="124.5,244.1 108.9,262.5 93.1,216.2 	"/>
	<polygon class="st2" points="70.6,238.1 135,236.2 108.9,262.5 	"/>
	<polygon class="st2" points="87.3,190.8 75.9,188.8 79.3,206.9 	"/>
	<polygon class="st2" points="103.6,207.3 95.2,187.9 75.9,188.8 	"/>
	<polygon class="st2" points="140.3,232 158.2,248.6 135.7,249.9 	"/>
	<path class="st2" d="M153.7,263.1"/>
	<polygon class="st2" points="159.1,269.3 157.4,255.7 153.7,263.1 	"/>
	<polygon class="st2" points="159,275.8 164.2,282.5 163.4,261.4 	"/>
	<polygon class="st2" points="156.5,287.9 148.5,283 152.8,292.2 	"/>
	<polygon class="st2" points="159,275.8 164.2,282.5 156.5,287.9 	"/>
	<polygon class="st2" points="159.1,288.6 170.8,287.5 164.2,282.5 	"/>
	<polygon class="st2" points="135.7,249.9 148.4,274.4 149.8,259.9 	"/>
	<polygon class="st2" points="148.4,274.4 148.5,283 159,275.8 	"/>
	<polygon class="st2" points="148.2,291.1 125.8,284.1 148.4,274.4 	"/>
	<polygon class="st2" points="-83.8,278.8 -92.2,282.3 -100.9,270.8 	"/>
	<polygon class="st2" points="-104.1,276.2 -104.1,261.8 -92.2,282.3 	"/>
	<polygon class="st2" points="-99.7,249.9 -112,212.4 -110.7,233.7 	"/>
	<polygon class="st2" points="-93.6,264.2 -112,212.4 -104.1,261.8 	"/>
	<polygon class="st2" points="-119.4,218.5 -118.2,201.1 -111.1,202.9 	"/>
	<polygon class="st2" points="-120.9,163.6 -131.9,159.7 -127.6,151.9 	"/>
	<polygon class="st2" points="-120.2,192 -120.9,163.6 -110.2,169.3 	"/>
	<polygon class="st2" points="-109.3,184.8 -112,212.4 -118.2,201.1 	"/>
	<polygon class="st2" points="-102.8,173.2 -109.3,184.8 -120.9,163.6 	"/>
	<polygon class="st2" points="-110.9,144.8 -120.9,163.6 -121,145.4 	"/>
	<polygon class="st2" points="-110,136.9 -104.4,142.5 -127.6,151.9 	"/>
	<polygon class="st2" points="-84,267.7 -78.7,239.1 -64.2,233.4 	"/>
	<polygon class="st2" points="-92.2,282.3 -84,267.7 -83.8,278.8 	"/>
	<polygon class="st2" points="-93.6,264.2 -63.2,263.4 -77.7,254.3 	"/>
	<polygon class="st2" points="-51.7,242.9 -61.6,244.1 -63.5,262.8 	"/>
	<polygon class="st2" points="-47,227.6 -56.3,227.8 -63.2,263.4 	"/>
	<polygon class="st2" points="-56.3,217.5 -64.2,233.4 -51.7,242.9 	"/>
	<polygon class="st2" points="-39.2,234.9 -43.5,226.4 -34.9,222.8 	"/>
	<path class="st2" d="M-113.5,188.8"/>
	<polygon class="st2" points="-108.7,187.7 -111.5,181.5 -113.5,188.8 	"/>
	<polygon class="st2" points="-108,192.7 -105.7,181.8 -109.3,184.8 	"/>
	<polygon class="st2" points="-100.9,270.8 -104.1,276.2 -83.8,278.8 	"/>
	<polygon class="st2" points="-93.6,264.2 -92.2,282.3 -104.1,276.2 	"/>
	<polygon class="st2" points="-100.9,270.8 -99.7,249.9 -104.1,276.2 	"/>
	<polygon class="st2" points="-84,267.7 -100.9,270.8 -104.1,276.2 	"/>
	<polygon class="st2" points="-88.1,263.4 -93.6,264.2 -84,267.7 	"/>
	<polygon class="st2" points="-83.8,278.8 -63.2,263.4 -88.1,263.4 	"/>
	<polygon class="st2" points="4.7,370.9 0,361.9 -3,374.2 	"/>
	<polygon class="st2" points="0.4,380.5 2.9,376.1 -3,374.2 	"/>
	<polygon class="st2" points="10.1,375.7 14,383.6 2.8,376.1 	"/>
	<polygon class="st2" points="22,377.4 12.9,369 4.7,370.9 	"/>
	<polygon class="st2" points="10.1,375.7 23.4,359.9 14,383.8 	"/>
</g>
<g id="Í_xBC__xB2_ã_x5F_9_x5F_x5F_x5F__xB8__xB4_ÖÆ">
	<polygon class="st3" points="-93.9,137.3 -95.5,141.8 -87.9,136.4 	"/>
	<polygon class="st3" points="-93.6,146.3 -94.8,149.6 -91.2,151.8 	"/>
	<polygon class="st3" points="-86,145.5 -94.8,149.6 -93.6,146.3 	"/>
	<polygon class="st3" points="-93.9,137.3 -86,145.5 -93.6,146.3 	"/>
	<polygon class="st3" points="-95.5,141.8 -96.5,131.3 -91.2,129.8 	"/>
	<polygon class="st4" points="-96,123.7 -93.9,137.3 -91.2,129.8 	"/>
	<polygon class="st3" points="-91.5,121.7 -96.5,131.3 -88.2,126.6 	"/>
	<polygon class="st3" points="-92.8,120.5 -86.9,116.8 -91.5,121.7 	"/>
	<polygon class="st5" points="-85.7,120 -84.5,127.3 -96,123.7 	"/>
	<polygon class="st3" points="-86.9,116.8 -80.1,114.3 -78.2,120.9 	"/>
	<polygon class="st3" points="-94.3,154.4 -93.9,157.1 -91.2,151.8 	"/>
	<polygon class="st3" points="-92.1,159.3 -96.3,164 -92.3,165.2 	"/>
	<polygon class="st3" points="-93.7,165.7 -92.1,159.3 -93.9,157.1 	"/>
	<polygon class="st3" points="-91.5,169.7 -92.3,165.2 -86.6,162.6 	"/>
	<polygon class="st6" points="-88.5,174.6 -92.3,165.2 -85.4,167 	"/>
	<polygon class="st3" points="-92.1,159.3 -77.7,159.7 -91.2,151.8 	"/>
	<polygon class="st3" points="-89.2,157 -88.6,159.4 -84.5,153.6 	"/>
	<polygon class="st3" points="-86.6,162.6 -94.3,154.4 -91.2,151.8 	"/>
	<polygon class="st3" points="-92.1,159.3 -89.9,164.7 -92.3,165.2 	"/>
	<polygon class="st3" points="-84.2,175.4 -73.9,176.2 -79.8,172.8 	"/>
	<polygon class="st3" points="-88.5,174.6 -86.6,162.6 -84.2,175.4 	"/>
	<polygon class="st6" points="-91.5,169.7 -79.8,172.8 -88.5,174.6 	"/>
	<polygon class="st3" points="-93.7,165.7 -91.5,169.7 -85.4,167 	"/>
	<polygon class="st3" points="-76.4,180.2 -79.8,172.8 -73.9,176.2 	"/>
	<polygon class="st3" points="-73.1,185.4 -76.4,180.2 -64.5,183.7 	"/>
	<polygon class="st3" points="-66.5,189.3 -76.4,180.2 -73.9,176.2 	"/>
	<polygon class="st3" points="-69.3,188.9 -71.9,181.5 -73.1,185.4 	"/>
	<polygon class="st3" points="-80.1,165.6 -77.7,159.7 -86.6,162.6 	"/>
	<polygon class="st3" points="-71.6,163.6 -73.9,176.2 -76.4,180.2 	"/>
	<polygon class="st3" points="-77.7,159.7 -84.5,153.6 -86,145.5 	"/>
	<polygon class="st3" points="-76.4,180.2 -84.2,175.4 -79.8,172.8 	"/>
	<polygon class="st3" points="-69.4,133 -72.7,132.1 -71.5,121.8 	"/>
	<polygon class="st3" points="-71.9,114.9 -59.8,120.3 -71.5,121.8 	"/>
	<polygon class="st7" points="-85.7,120 -72.7,106.5 -86.9,116.8 	"/>
	<polygon class="st3" points="-80.1,114.3 -61.3,116.6 -63.1,112.3 	"/>
	<polyline class="st3" points="-53.8,115.2 -51.7,120.7 -65.9,116.8 -54.2,115.2 	"/>
	<polygon class="st3" points="-55.6,125.2 -63.1,112.3 -47.6,119.7 	"/>
	<polygon class="st3" points="-72.7,106.5 -63.1,112.3 -71.9,114.9 	"/>
	<polygon class="st5" points="-81,131.1 -85.4,142.5 -93.9,137.3 	"/>
	<polygon class="st3" points="-80.4,125.3 -69.4,133 -91.2,129.8 	"/>
	<polygon class="st5" points="-78.2,120.9 -59.8,120.3 -72.7,132.1 	"/>
	<polygon class="st3" points="-48.7,124.4 -48.8,134.1 -52.4,130.3 	"/>
	<polygon class="st3" points="-62.3,121.2 -55.6,125.2 -69.4,133 	"/>
	<polygon class="st3" points="-38.4,126.7 -50.2,115.7 -63.1,112.3 	"/>
	<polygon class="st7" points="-54.8,108.5 -71.9,114.9 -45.1,114.9 	"/>
	<polygon class="st3" points="-86,145.5 -79.5,148.4 -69.3,142 	"/>
	<polygon class="st3" points="-81.2,131.1 -79.5,148.4 -69.3,142 	"/>
	<path class="st3" d="M-39.3,140.4"/>
	<polygon class="st3" points="-42.7,136.7 -55.6,125.2 -38.4,126.7 	"/>
	<polygon class="st3" points="-56.3,181.3 -73.1,185.4 -66.5,189.3 	"/>
	<polygon class="st3" points="-65.9,180.2 -76.4,180.2 -73.1,185.4 	"/>
	<polygon class="st3" points="-68.3,173.8 -64.6,183.6 -76.4,180.2 	"/>
	<polygon class="st3" points="-49.2,170.8 -58.6,164.2 -65.9,180.1 	"/>
	<polygon class="st3" points="-56.3,181.3 -58.6,164.2 -64.6,183.6 	"/>
	<polygon class="st3" points="-73.9,176.2 -86.6,162.6 -77.7,159.7 	"/>
	<polygon class="st3" points="-96.7,143.7 -95.5,141.8 -91.2,151.8 	"/>
	<polygon class="st3" points="-94.8,149.6 -87.9,136.4 -85.4,142.5 	"/>
	<polygon class="st8" points="-84.5,153.6 -91.2,151.8 -86.2,148.4 	"/>
	<polygon class="st5" points="-95.5,141.8 -86.2,148.4 -85.4,142.5 	"/>
	<polygon class="st3" points="-91.2,129.8 -87.9,136.4 -88.5,126.7 	"/>
	<polygon class="st3" points="-98.1,137.9 -96.5,131.3 -93.9,137.3 	"/>
	<polygon class="st3" points="-96.7,143.7 -98.1,137.9 -95.5,141.8 	"/>
	<polygon class="st3" points="-93.6,172.8 -93.9,157.1 -91.5,169.7 	"/>
	<polygon class="st3" points="-77.5,184 -73.1,185.4 -76.4,180.2 	"/>
	<polygon class="st3" points="-24.6,128 -26.9,137 -12.4,130.5 	"/>
	<polygon class="st3" points="-26.9,137 -29.9,143.5 -28,148.6 	"/>
	<polygon class="st3" points="-26.9,137 -8.9,122 -3,130.3 	"/>
	<polygon class="st3" points="-26.9,137 -17.3,124.5 -15.5,128.6 	"/>
	<polygon class="st3" points="-3,130.3 -17.3,124.5 -12.4,119.2 	"/>
	<polygon class="st3" points="-4.4,118.1 -12.4,130.5 0.4,122.7 	"/>
	<polygon class="st3" points="7.9,111.6 -8.9,122 -3,130.3 	"/>
	<polygon class="st3" points="11.5,114.6 28.8,87.2 12.9,104.4 	"/>
	<polygon class="st7" points="7.9,111.6 12.9,104.4 28.5,106.5 	"/>
	<polygon class="st3" points="-34.6,171.5 -28.9,182.9 -56.3,181.3 	"/>
	<polygon class="st3" points="23,121 25.3,133.9 33.7,118.9 	"/>
	<polygon class="st3" points="19.7,116.7 25.3,133.9 -3,130.3 	"/>
	<polygon class="st9" points="54,59.1 86.3,68.2 47.6,73.4 	"/>
	<polygon class="st6" points="46.6,64.2 66.4,65.4 45.2,69.7 	"/>
	<polygon class="st3" points="70.3,56.3 54,59.1 49.5,65.7 	"/>
	<polygon class="st3" points="39.8,71.9 28.8,87.2 27.7,82.3 	"/>
	<polygon class="st3" points="29.3,94.5 47.6,73.4 28.8,87.2 	"/>
	<polygon class="st3" points="39.8,71.9 47.6,73.4 26.2,87 	"/>
	<polygon class="st3" points="111.2,69 86.3,68.2 77.3,76.2 	"/>
	<polygon class="st3" points="160.1,77.8 146.1,70.3 140,71.1 	"/>
	<polygon class="st9" points="70.3,56.3 111.2,69 86.3,68.2 	"/>
	<polygon class="st3" points="121.7,56.5 130.2,66.1 120,61.2 	"/>
	<polygon class="st3" points="193.5,63.3 187.4,61.5 178.3,65.3 	"/>
	<polygon class="st3" points="162.7,72 160.8,82.4 154.4,75.4 	"/>
	<polygon class="st3" points="170.8,75.9 178.3,90.7 168.4,86.2 	"/>
	<polygon class="st3" points="162.7,72 171.8,79.8 160.1,77.8 	"/>
	<polygon class="st3" points="202.6,69.9 217.3,79.5 213.1,74.4 	"/>
	<polygon class="st6" points="178.2,97.3 171.8,79.8 178.8,78.6 	"/>
	<polygon class="st3" points="210.3,91.5 211.5,88.4 212.9,89.2 	"/>
	<polygon class="st9" points="211.5,88.4 202.6,78.8 188.1,74.7 	"/>
	<polygon class="st3" points="195.5,94.5 182.8,85.3 168.4,86.2 	"/>
	<polygon class="st3" points="187.4,61.5 162.7,72 171.8,79.8 	"/>
	<polygon class="st3" points="178.2,65.4 202.6,78.8 187.4,61.5 	"/>
	<polygon class="st4" points="-16.2,125.3 -21.4,131.3 -15.5,128.6 	"/>
	<polygon class="st6" points="-17.3,124.5 0.4,122.7 -3,130.3 	"/>
	<polygon class="st7" points="-2.2,120.8 1.3,127.8 11.5,114.6 	"/>
	<polygon class="st3" points="19.7,116.7 27.6,97.6 11.5,114.6 	"/>
	<polygon class="st3" points="-44.4,189.9 -45.2,196.1 -34.4,200.2 	"/>
	<polygon class="st3" points="-49.2,170.8 -44.4,189.9 -34.6,171.5 	"/>
	<polygon class="st3" points="-42.7,136.7 -29.9,143.5 -35,147.1 	"/>
	<polygon class="st3" points="-37.1,133.9 -42.7,136.7 -26.9,137 	"/>
	<polygon class="st3" points="-41.1,186.5 -37.1,213.1 -34.4,200.2 	"/>
	<polygon class="st3" points="-44.4,189.9 -32.9,185.6 -37.6,180.3 	"/>
	<polygon class="st6" points="-28.7,225.3 -37.1,213.1 -12.6,222.9 	"/>
	<polygon class="st3" points="-14.8,230.7 -28.7,225.3 -28.7,212.7 	"/>
	<polygon class="st3" points="-2.7,228 -28.7,225.3 -31.6,205.5 	"/>
	<polygon class="st3" points="40.2,132.5 23,121 25.3,133.9 	"/>
	<polygon class="st3" points="157.4,255.7 170.8,287.5 159,275.8 	"/>
	<polygon class="st3" points="149.8,259.9 148.2,291.1 170.8,287.5 	"/>
	<polygon class="st3" points="157.4,255.7 147.9,242.6 135.7,249.9 	"/>
	<polygon class="st3" points="50.9,290.4 41.2,305.6 56.2,294.1 	"/>
	<polygon class="st9" points="135.7,249.9 159,275.8 125.8,284.1 	"/>
	<polygon class="st8" points="-6.7,369.1 3.2,388.8 2.9,376.1 	"/>
	<polygon class="st7" points="4.2,357.5 -2.7,379.1 12.9,369 	"/>
	<polygon class="st3" points="24.7,323.2 2.8,352.6 15.2,354 	"/>
	<polygon class="st7" points="30.3,324.2 24.7,323.2 4.2,357.5 	"/>
	<polygon class="st3" points="159,275.8 149.5,300.7 100.5,326.4 	"/>
	<polygon class="st3" points="59.8,310.4 30.5,338.2 30.3,324.2 	"/>
	<polygon class="st3" points="73,367.8 36.1,379.7 36.3,361.1 	"/>
	<polygon class="st3" points="12.9,369 36.1,379.7 3.2,388.8 	"/>
	<polygon class="st3" points="12.9,369 15.2,354 -6.7,369.1 	"/>
	<polygon class="st3" points="4.2,357.5 30.5,338.2 14.8,335 	"/>
	<polygon class="st3" points="2.8,352.6 4.2,357.5 2.9,376.1 	"/>
	<polygon class="st3" points="0,361.9 -6.7,369.1 0.3,353 	"/>
	<polygon class="st3" points="0.3,353 7.3,358.2 12.9,369 	"/>
	<polygon class="st3" points="23.4,359.9 36.3,361.1 22,377.4 	"/>
	<polygon class="st3" points="30.5,338.2 23.4,359.9 15.2,354 	"/>
	<polygon class="st3" points="2.8,388.8 14,383.6 0.4,380.5 	"/>
	<polygon class="st3" points="27.5,392 14,383.6 26,385.9 	"/>
	<polygon class="st3" points="22,377.4 14,383.6 42.9,387.3 	"/>
	<polygon class="st3" points="95.2,378.8 73,367.8 70.5,381.2 	"/>
	<polygon class="st3" points="42.9,387.3 54.6,387.6 41.7,397.1 	"/>
	<polygon class="st3" points="90.9,393.3 54.6,387.6 70.5,381.2 	"/>
	<polygon class="st3" points="119.2,401.1 103.9,389.9 90.9,393.3 	"/>
	<polygon class="st3" points="95.2,378.8 103.9,389.9 54.6,387.6 	"/>
	<polygon class="st3" points="164.2,395 142.7,395.8 157.4,402.7 	"/>
	<polygon class="st3" points="171.8,389.7 179,406 164.4,401 	"/>
	<polygon class="st3" points="186.4,403.1 175.5,416.8 170,406 	"/>
	<polygon class="st3" points="171.8,389.7 179.5,395.3 175.5,416.8 	"/>
	<polygon class="st6" points="164.4,401 170.6,428.1 170,406 	"/>
	<polygon class="st3" points="157.8,420.4 170,406 157.4,402.7 	"/>
	<polygon class="st3" points="144.5,408.2 103.9,389.9 137.5,413.4 	"/>
	<polygon class="st3" points="142.7,395.8 144.5,408.2 157.8,420.4 	"/>
	<polygon class="st3" points="151.4,421.9 156.5,444.8 162.7,436.2 	"/>
	<polygon class="st3" points="155.4,467.6 166.3,463.6 167.4,448.4 	"/>
	<polygon class="st3" points="162.7,436.2 170.6,428.1 167.4,448.4 	"/>
	<polygon class="st3" points="175.5,416.8 155.4,467.6 171.8,444.1 	"/>
	<polygon class="st3" points="70.9,403.5 55.1,392.2 63.8,392.2 	"/>
	<polygon class="st3" points="113,404 144.5,408.2 119,400.9 	"/>
	<polygon class="st3" points="129.4,324.9 146.5,343 153.4,337.1 	"/>
	<polygon class="st9" points="133.7,316.3 149.5,300.7 166,321.7 	"/>
	<polygon class="st3" points="117.5,319.8 137.2,337.7 133.7,316.3 	"/>
	<polygon class="st3" points="153.4,337.1 165.1,352.9 160.3,336.2 	"/>
	<polygon class="st3" points="287.2,413.5 291.8,427.2 278.2,411.7 	"/>
	<polygon class="st3" points="268.8,405.7 241.4,390.4 248.5,399.6 270.6,428.1 	"/>
	<polygon class="st3" points="278.2,411.7 248.2,408.5 241.4,390.4 	"/>
	<polygon class="st3" points="187,370.9 177.1,336.2 187.9,351 	"/>
	<polygon class="st3" points="187,370.9 234.7,380.6 228,397.6 	"/>
	<polygon class="st3" points="368.7,460.6 343.8,481.9 363.1,480.7 	"/>
	<polygon class="st3" points="367.1,484.5 356.7,474.5 353.8,485.4 	"/>
	<polygon class="st3" points="363.9,458 368.7,460.6 363.1,480.6 	"/>
	<polygon class="st3" points="333.2,475.9 356.7,474.5 343.8,481.9 	"/>
	<polygon class="st3" points="322.3,466.6 343.8,481.9 306.9,476.6 	"/>
	<polygon class="st3" points="309.2,462.6 270.6,428.1 300.2,443.8 	"/>
	<polygon class="st3" points="309.2,462.6 333.2,475.9 322.3,466.6 	"/>
	<polygon class="st3" points="367.1,484.5 367.4,499.8 359.5,498.1 	"/>
	<polygon class="st3" points="369.7,538.9 370.4,551.3 357.6,555.8 	"/>
	<polygon class="st3" points="340.4,556.7 370.4,551.3 369.7,538.9 	"/>
	<polygon class="st3" points="103.6,207.3 112.6,221.6 93.1,216.2 	"/>
	<polygon class="st3" points="124.5,244.1 112.6,221.6 121.5,218.5 	"/>
	<path class="st3" d="M43.2,146.5"/>
	<polygon class="st3" points="152.8,292.2 139.5,304.5 148.2,291.1 	"/>
	<polygon class="st3" points="164.2,282.5 156.5,298 149.5,300.7 	"/>
	<polygon class="st6" points="152.8,292.2 156.5,298 159,275.8 	"/>
	<polygon class="st3" points="163.4,261.3 159,275.8 149.8,259.9 	"/>
	<polygon class="st3" points="157.4,255.7 143.4,250.4 149.8,259.9 	"/>
	<path class="st3" d="M143.4,250.4"/>
	<polygon class="st3" points="124.5,244.1 139.5,244.7 143.4,250.4 	"/>
	<polygon class="st3" points="123.9,237.9 147.9,242.6 135.7,249.9 	"/>
	<polygon class="st9" points="87.3,190.8 75.9,188.8 79.3,206.9 	"/>
	<polygon class="st3" points="140.3,232 158.2,248.6 135.7,249.9 	"/>
	<path class="st3" d="M153.7,263.1"/>
	<polygon class="st3" points="159.1,269.3 157.4,255.7 153.7,263.1 	"/>
	<polygon class="st7" points="159,275.8 164.2,282.5 163.4,261.4 	"/>
	<polygon class="st6" points="156.5,287.9 148.5,283 152.8,292.2 	"/>
	<polygon class="st4" points="159,275.8 164.2,282.5 156.5,287.9 	"/>
	<polygon class="st3" points="159.1,288.6 170.8,287.5 164.2,282.5 	"/>
	<polygon class="st3" points="135.7,249.9 148.4,274.4 149.8,259.9 	"/>
	<polygon class="st3" points="148.4,274.4 148.5,283 159,275.8 	"/>
	<polygon class="st3" points="148.2,291.1 125.8,284.1 148.4,274.4 	"/>
	<polygon class="st3" points="-83.8,278.8 -92.2,282.3 -100.9,270.8 	"/>
	<polygon class="st3" points="-104.1,276.2 -104.1,261.8 -92.2,282.3 	"/>
	<polygon class="st3" points="-99.7,249.9 -112,212.4 -110.7,233.7 	"/>
	<polygon class="st9" points="-93.6,264.2 -112,212.4 -104.1,261.8 	"/>
	<polygon class="st3" points="-120.9,163.6 -131.9,159.7 -127.6,151.9 	"/>
	<polygon class="st9" points="-120.2,192 -120.9,163.6 -110.2,169.3 	"/>
	<polygon class="st9" points="-102.8,173.2 -109.3,184.8 -120.9,163.6 	"/>
	<polygon class="st9" points="-110.9,144.8 -120.9,163.6 -121,145.4 	"/>
	<polygon class="st3" points="-110,136.9 -104.4,142.5 -127.6,151.9 	"/>
	<polygon class="st3" points="-92.2,282.3 -84,267.7 -83.8,278.8 	"/>
	<polygon class="st3" points="-93.6,264.2 -63.2,263.4 -77.7,254.3 	"/>
	<polygon class="st5" points="-51.7,242.9 -61.6,244.1 -63.5,262.8 	"/>
	<polygon class="st9" points="-47,227.6 -56.3,227.8 -63.2,263.4 	"/>
	<polygon class="st3" points="-39.2,234.9 -43.5,226.4 -34.9,222.8 	"/>
	<path class="st3" d="M-113.5,188.8"/>
	<polygon class="st3" points="-108.7,187.7 -111.5,181.5 -113.5,188.8 	"/>
	<polygon class="st3" points="-108,192.7 -105.7,181.8 -109.3,184.8 	"/>
	<polygon class="st6" points="-100.9,270.8 -104.1,276.2 -83.8,278.8 	"/>
	<polygon class="st3" points="-93.6,264.2 -92.2,282.3 -104.1,276.2 	"/>
	<polygon class="st3" points="-100.9,270.8 -99.7,249.9 -104.1,276.2 	"/>
	<polygon class="st3" points="-84,267.7 -100.9,270.8 -104.1,276.2 	"/>
	<polygon class="st3" points="-88.1,263.4 -93.6,264.2 -84,267.7 	"/>
	<polygon class="st3" points="-83.8,278.8 -63.2,263.4 -88.1,263.4 	"/>
	<polygon class="st6" points="4.7,370.9 0,361.9 -3,374.2 	"/>
	<polygon class="st3" points="0.4,380.5 2.9,376.1 -3,374.2 	"/>
	<polygon class="st3" points="10.1,375.7 14,383.6 2.8,376.1 	"/>
	<polygon class="st3" points="22,377.4 12.9,369 4.7,370.9 	"/>
	<polygon class="st3" points="10.1,375.7 23.4,359.9 14,383.8 	"/>
	<polygon class="st3" points="209.6,332.8 181.7,307 199.2,337.6 	"/>
	<polygon class="st3" points="170.9,279.9 177.3,336.9 162.4,314 	"/>
	<polygon class="st5" points="170.8,287.5 181.7,307 169.5,295.8 	"/>
	<polygon class="st3" points="241.4,390.4 221.4,384.6 227.7,362.2 	"/>
	<polygon class="st9" points="209.6,332.8 233.4,368.5 177.3,336.9 	"/>
	<polygon class="st5" points="264.9,439.5 309.2,462.6 300.2,443.8 	"/>
	<polygon class="st7" points="62.6,373.8 95.2,378.8 73,367.8 	"/>
	<polygon class="st8" points="-91.2,151.8 -89.1,157.2 -93.9,157.1 	"/>
	<polygon class="st7" points="-93.7,146.3 -96.7,143.7 -95.5,141.8 	"/>
	<polygon class="st5" points="-81.2,131.1 -79.5,148.4 -91.2,151.8 	"/>
	<polygon class="st5" points="-96,123.7 -80.4,125.3 -86,145.5 	"/>
	<polygon class="st5" points="-98.1,137.9 -91.2,151.8 -87.9,136.4 	"/>
	<polygon class="st5" points="-98.1,137.9 -95.5,141.8 -88.2,126.6 	"/>
	<polygon class="st3" points="-56.3,181.3 -75.9,168.6 -71.6,163.6 	"/>
	<polygon class="st5" points="-58.6,164.2 -66.1,180.3 -73.9,176.2 	"/>
	<polygon class="st5" points="-49.2,170.8 -58.6,164.2 -68.3,173.8 	"/>
	<polygon class="st5" points="-80.1,165.6 -79.8,172.8 -88.5,174.6 	"/>
	<polygon class="st7" points="-88.9,159.5 -89.9,164.7 -86.6,162.6 	"/>
	<polygon class="st3" points="-42.7,136.7 -69.3,142 -71.5,121.8 	"/>
	<polygon class="st5" points="-35,147.1 -43.8,153.3 -48.8,134.1 	"/>
	<polygon class="st7" points="-71.5,121.8 -78.2,120.9 -81.2,131.1 	"/>
	<polygon class="st6" points="-80.6,125.4 -86.9,116.8 -80.1,114.3 	"/>
	<polygon class="st7" points="-72.7,132.1 -79.5,148.4 -85.4,142.5 	"/>
	<polygon class="st6" points="0.4,380.5 10.1,375.7 14.1,383.5 	"/>
	<polygon class="st7" points="32.7,370.5 28.7,369.3 36.1,379.7 	"/>
	<polygon class="st8" points="0.3,353 0,361.9 4,357.5 	"/>
	<polygon class="st5" points="-77.7,254.3 -99.7,249.9 -93.9,264.2 	"/>
	<polygon class="st6" points="-88.1,263.4 -99.7,249.9 -93.6,264.2 	"/>
	<polygon class="st6" points="-112,212.4 -116.5,204.7 -111.1,202.9 	"/>
	<polygon class="st7" points="-108,192.7 -116.5,204.7 -113.5,188.8 	"/>
	<polygon class="st4" points="-122.1,141.6 -121,145.4 -127.6,151.9 	"/>
	<polygon class="st6" points="-120.2,192 -112,212.4 -111.1,202.9 	"/>
	<polygon class="st6" points="-72.7,132.1 -78.7,125.1 -71.5,121.8 	"/>
	<polygon class="st8" points="-4.4,118.1 15,117.3 -2.2,120.8 	"/>
	<polygon class="st10" points="268.8,405.7 287.2,413.5 278.2,411.7 	"/>
	<polygon class="st3" points="287.2,413.5 322.3,466.6 268.8,405.7 	"/>
	<polygon class="st3" points="-118.2,201.1 -131.9,159.7 -121,145.4 	"/>
	<polygon class="st5" points="-119.4,218.5 -104.1,276.2 -93.6,264.2 	"/>
	<polygon class="st5" points="-45.2,196.1 -56.3,217.5 -34.4,200.2 	"/>
	<polygon class="st3" points="0.9,151.1 24.9,138.7 4.3,135.3 	"/>
	<polygon class="st3" points="-16.2,155.8 -3,130.3 25.3,133.9 	"/>
	<polygon class="st5" points="0.9,151.1 -17.6,134.1 4.3,135.3 	"/>
	<polygon class="st3" points="35.2,158.4 4.3,135.3 25.3,133.9 	"/>
	<polygon class="st4" points="4.3,135.3 1.3,127.8 25.3,133.9 	"/>
	<polygon class="st4" points="11.5,114.6 4.3,135.3 1.3,127.8 	"/>
	<polygon class="st5" points="24.9,138.7 0.4,122.7 19.8,117 	"/>
	<polygon class="st7" points="25.3,133.9 0.4,122.7 25.8,126.9 	"/>
	<polygon class="st7" points="19.7,116.7 0.9,151.4 25.3,133.9 	"/>
	<polygon class="st5" points="28.5,106.5 15,117.3 25.8,126.9 	"/>
</g>
<g id="Í_xBC__xB2_ã_x5F_4" class="st11">
	<g class="st12">
		<g>
			<defs>
				<rect id="SVGID_2_" x="-179" y="-0.4" width="600" height="600"/>
			</defs>
			<clipPath id="SVGID_3_">
				<use xlink:href="#SVGID_2_"  style="overflow:visible;"/>
			</clipPath>
			
				<radialGradient id="SVGID_4_" cx="-3390.5291" cy="-4653.6147" r="169.063" gradientTransform="matrix(0.7584 -4.540000e-002 -0.1675 -0.8252 1763.1968 -3867.343)" gradientUnits="userSpaceOnUse">
				<stop  offset="0" style="stop-color:#FFFFFF"/>
				<stop  offset="3.858340e-002" style="stop-color:#FF4C85"/>
				<stop  offset="0.2633" style="stop-color:#98314C"/>
				<stop  offset="0.4666" style="stop-color:#52141D"/>
				<stop  offset="0.5637" style="stop-color:#2D0E16"/>
				<stop  offset="0.6765" style="stop-color:#1A0D09"/>
				<stop  offset="0.7549" style="stop-color:#0F070B"/>
				<stop  offset="0.8382" style="stop-color:#050303"/>
				<stop  offset="0.9069" style="stop-color:#020101"/>
				<stop  offset="1" style="stop-color:#000000"/>
			</radialGradient>
			<path class="st13" d="M135.7,117c20,98.8-37.4,183.3-128.2,188.7c-90.7,5.3-180.6-70.4-200.6-169.2S-155.7-46.8-64.9-52.2
				S115.7,18.2,135.7,117z"/>
		</g>
	</g>
</g>
<g id="Í_xBC__xB2_ã_x5F_5" class="st11">
	<g class="st12">
		<g>
			<defs>
				<rect id="SVGID_5_" x="-179" y="-0.4" width="600" height="600"/>
			</defs>
			<clipPath id="SVGID_6_">
				<use xlink:href="#SVGID_5_"  style="overflow:visible;"/>
			</clipPath>
			
				<radialGradient id="SVGID_7_" cx="-2390.3948" cy="-5247.9326" r="168.9749" gradientTransform="matrix(4.070000e-002 0.6238 0.4919 1.820000e-002 2652.1438 1716.1904)" gradientUnits="userSpaceOnUse">
				<stop  offset="0" style="stop-color:#E8FF4C"/>
				<stop  offset="0.2418" style="stop-color:#7B9831"/>
				<stop  offset="0.4559" style="stop-color:#465214"/>
				<stop  offset="0.7226" style="stop-color:#191C0E"/>
				<stop  offset="0.8759" style="stop-color:#030505"/>
				<stop  offset="1" style="stop-color:#000000"/>
			</radialGradient>
			<path class="st14" d="M-17.7,264.7c-58.9-2.1-110.6-64.4-115.5-139C-138.1,51-94.3-7.7-35.5-5.6C23.4-3.4,75.1,58.8,80,133.5
				C84.9,208.1,41.1,266.9-17.7,264.7z"/>
		</g>
	</g>
</g>
</svg>
